<svg width="370" height="106" viewBox="0 0 370 106" fill="none" xmlns="http://www.w3.org/2000/svg">
<path fill-rule="evenodd" clip-rule="evenodd" d="M229.623 0.0877609C222.886 0.801119 216.8 4.53474 213.175 10.1787C211.895 12.1713 211.402 13.4609 211.293 15.1035C211.142 17.3806 212.04 19.1207 213.843 20.0426C215.037 20.6533 215.751 20.7859 218.229 20.8569C219.486 20.893 220.514 20.9484 220.514 20.9801C220.514 21.0119 220.235 21.9221 219.895 23.0029C218.981 25.9032 218.957 27.3638 219.797 29.0456C220.298 30.0476 220.87 30.6397 221.824 31.1452C223.391 31.9745 225.462 32.0733 227.628 31.4216C228.611 31.126 228.605 31.1404 228.131 30.1791C227.899 29.7087 227.632 28.9915 227.539 28.5852C227.421 28.0741 227.316 27.8595 227.2 27.8888C224.981 28.4479 224.06 28.3765 223.303 27.5869C222.978 27.2484 222.9 27.0564 222.853 26.4825C222.803 25.878 222.897 25.4706 223.573 23.339L224.35 20.8901H226.552H228.754L229.285 19.1972C229.577 18.2662 229.84 17.4351 229.868 17.3504C229.909 17.231 229.428 17.1965 227.723 17.1965H225.525L225.947 15.9346C226.179 15.2404 226.608 13.9108 226.901 12.9797L227.434 11.2868H225.522H223.611L222.666 14.25L221.721 17.2134L219.006 17.1741L216.292 17.135L215.789 16.7982C214.818 16.1487 214.811 15.0339 215.763 13.0261C216.384 11.719 217.467 10.3167 219.018 8.81267C225.28 2.74174 234.947 1.92361 242.234 6.84792C247.886 10.6676 251.127 17.479 250.501 24.2263C250.077 28.8017 248.233 32.7888 245.067 35.9724C243.519 37.5295 242.251 38.4806 240.47 39.4196C237.877 40.7867 235.429 41.4438 232.554 41.5445C229.718 41.6439 227.481 41.2583 224.84 40.2147C219.351 38.046 214.842 32.716 213.562 26.8842C213.424 26.256 213.374 26.1758 213.152 26.2289C213.013 26.2622 212.289 26.4107 211.543 26.559C210.798 26.7072 210.123 26.8689 210.044 26.9182C209.775 27.0862 210.502 29.7038 211.379 31.7247C213.684 37.0364 218.168 41.4426 223.446 43.583C234.341 48.0012 246.748 43.1782 251.894 32.525C255.727 24.5872 254.605 15.0517 249.024 8.14955C246.355 4.84906 242.203 2.0828 238.118 0.884595C235.657 0.162495 232.082 -0.172761 229.623 0.0877609ZM230.874 21.2297C229.655 25.0861 229.598 25.3161 229.553 26.5313C229.5 27.976 229.666 28.6833 230.292 29.6772C231.941 32.2946 236.141 32.5531 239.337 30.2336L239.862 29.8523L240.323 30.3672C240.888 30.9993 241.727 31.4423 242.793 31.6705C243.791 31.8844 245.328 31.8957 245.724 31.6921C246.014 31.5429 246.72 30.3575 247.171 29.2623L247.399 28.7083L245.987 28.6963C244.373 28.6828 243.715 28.4969 243.081 27.8764C242.862 27.6615 242.628 27.2812 242.561 27.0313C242.424 26.5154 242.362 26.7422 244.22 20.9428C244.851 18.9743 245.367 17.3259 245.367 17.28C245.367 17.2341 244.522 17.1965 243.489 17.1965H241.61L241.242 18.3354C241.04 18.9618 240.458 20.7857 239.95 22.3886C238.922 25.6319 238.55 26.3228 237.357 27.2083C235.826 28.344 234.31 28.5285 233.504 27.6775C232.865 27.004 232.898 26.8088 234.464 21.9447C235.248 19.5113 235.917 17.4476 235.951 17.3584C236 17.2288 235.627 17.1968 234.08 17.1975L232.149 17.1985L230.874 21.2297ZM0 37.4498V39.7275H4.50774H9.01548V53.0861V66.4446H11.513H14.0105V53.0861V39.7275H18.5183H23.026V37.4498V35.1721H11.513H0V37.4498ZM110.893 46.653L110.929 58.134L111.27 59.2421C112.28 62.5225 114.501 64.8059 117.865 66.0208C119.498 66.6106 120.834 66.8221 122.927 66.8224C128.836 66.8237 133.04 64.046 134.526 59.1595L134.8 58.2571L134.837 46.7146L134.875 35.1721H132.373H129.872L129.87 45.8528C129.868 54.6546 129.837 56.6801 129.693 57.367C129.198 59.7267 127.376 61.4704 124.792 62.0589C121.512 62.8054 117.998 61.4733 116.686 58.9866C115.968 57.6251 115.983 57.9033 115.983 46.0424V35.1721H113.42H110.858L110.893 46.653ZM165.867 35.5753C164.569 36.1025 164.106 36.8059 164.106 38.2501C164.106 38.9109 164.173 39.2978 164.354 39.675C164.997 41.0166 166.808 41.4822 168.351 40.7025C169.404 40.1708 169.768 39.54 169.767 38.2511C169.765 37.0625 169.431 36.3966 168.565 35.8558C168.067 35.545 167.823 35.4779 167.103 35.4537C166.627 35.4377 166.071 35.4924 165.867 35.5753ZM265.713 35.5039C263.806 35.7102 261.727 36.3197 260.084 37.1543C257.268 38.5845 255.007 40.8911 253.648 43.7208C251.573 48.0411 251.526 53.9659 253.533 58.2947C255.207 61.9037 258.46 64.7579 262.259 65.9503C263.837 66.4456 264.682 66.5789 266.702 66.6513C270.923 66.8028 274.038 65.8462 276.957 63.5019C278.949 61.9024 280.595 59.138 281.235 56.318L281.312 55.9794H278.869C276.651 55.9794 276.42 55.9992 276.354 56.1949C276.315 56.3133 276.085 56.8258 275.844 57.3337C275.282 58.518 273.595 60.2808 272.443 60.8872C270.006 62.1712 267.054 62.4752 264.457 61.7098C261.53 60.8473 259.484 59.0511 258.149 56.1702C257.382 54.5178 257.133 53.2837 257.129 51.1161C257.123 47.7121 257.996 45.2607 259.966 43.15C261.669 41.3258 263.588 40.3969 266.297 40.0859C268.306 39.8552 270.95 40.3839 272.655 41.3569C273.675 41.9389 275.318 43.6718 275.868 44.7447L276.325 45.6373H278.695C280.58 45.6373 281.064 45.6041 281.064 45.4742C281.064 45.1617 280.486 43.5994 280.031 42.6824C278.738 40.0753 276.453 37.9318 273.663 36.7102C271.336 35.6909 268.275 35.2265 265.713 35.5039ZM285.084 37.8192V39.8507H287.338H289.593L289.562 51.0854L289.531 62.3201L287.125 62.3534L284.718 62.3868V64.4157V66.4446H292.028H299.338V64.4157V62.3868L296.932 62.3534L294.526 62.3201L294.495 51.0854L294.464 39.8507H296.718H298.973V37.8192V35.7877H292.028H285.084V37.8192ZM304.942 51.1235V66.4595L312.709 66.4155C320.256 66.3728 320.503 66.364 321.45 66.1015C325.654 64.9367 327.965 61.8898 327.968 57.5073C327.969 55.0471 327.419 53.5667 325.959 52.1011C325.186 51.3253 323.794 50.439 323.349 50.439C323.069 50.439 323.246 50.2398 323.842 49.8849C325.096 49.1378 326.177 47.5677 326.494 46.0314C326.685 45.1059 326.66 43.3277 326.442 42.2155C325.914 39.5319 324.038 37.3789 321.428 36.4616C319.644 35.8348 318.963 35.7877 311.688 35.7877H304.942V51.1235ZM332.232 37.8192V39.8507H334.425H336.618V51.1161V62.3816H334.243H331.867V64.4131V66.4446H339.116H346.365V64.4131V62.3816H343.989H341.613V51.1161V39.8507H343.806H345.999V37.8192V35.7877H339.116H332.232V37.8192ZM351.969 51.1161V66.4446H360.985H370V64.168V61.8914L363.513 61.8595L357.025 61.8276L356.994 48.8076L356.963 35.7877H354.466H351.969V51.1161ZM318.648 40.3713C320.008 40.7742 320.906 41.5049 321.414 42.6209C321.819 43.5116 321.819 45.4237 321.414 46.3145C320.827 47.605 319.658 48.3644 317.9 48.5978C317.368 48.6686 315.374 48.7093 313.41 48.6894L309.877 48.6537L309.844 44.5301C309.827 42.2621 309.841 40.3308 309.876 40.2384C309.97 39.9913 317.765 40.1094 318.648 40.3713ZM21.8077 44.5968C21.7072 44.6184 21.4194 44.6698 21.1681 44.7113L20.7112 44.7867V46.4431V48.0997H21.2715C22.084 48.0997 22.6027 48.3898 22.8338 48.9735C23.0024 49.3992 23.026 50.5039 23.026 57.9518V66.4446H25.3968H27.7678L27.8039 59.5807C27.8381 53.0763 27.8525 52.6858 28.0803 52.1275C28.6218 50.7995 29.7887 49.7094 31.1526 49.2572C31.7011 49.0753 32.1987 49.0248 33.3816 49.0306C34.7381 49.0374 35.0022 49.0754 35.7985 49.3789C36.2902 49.5663 36.7072 49.7014 36.725 49.6791C36.8703 49.4985 38.6204 46.1231 38.6204 46.0238C38.6204 45.7974 36.6407 44.9004 35.6964 44.699C34.4145 44.4257 32.4226 44.5288 31.1686 44.9337C29.6397 45.4273 28.2231 46.508 27.7606 47.5338C27.5984 47.8934 27.4119 47.9568 27.4119 47.6523C27.4119 46.3672 26.0522 45.0239 24.3906 44.6676C23.805 44.5421 22.2616 44.4998 21.8077 44.5968ZM47.7071 44.6569C46.6369 44.8273 45.2906 45.2236 44.408 45.6281C41.3254 47.0405 39.0258 49.9799 38.3325 53.3939C37.5872 57.0633 38.3287 61.0048 40.2458 63.5657C41.4379 65.1582 43.3431 66.3061 45.4285 66.6883C46.7042 66.9219 48.8971 66.8614 49.9487 66.5632C51.9238 66.0031 53.6044 64.7555 54.5222 63.1681L55.0066 62.3302L55.0876 63.153C55.2287 64.5857 55.9472 65.77 57.007 66.3164C57.6741 66.6603 58.8898 66.8457 59.8742 66.7535C61.2734 66.6225 61.1592 66.7906 61.1583 64.8666L61.1576 63.1819L60.541 63.1691C60.1329 63.1606 59.8142 63.0737 59.5977 62.9118C58.8896 62.3823 58.9104 62.6246 58.8443 54.1941L58.7833 46.4376L57.8087 46.0451C56.5446 45.5361 54.9743 45.0802 53.6375 44.8339C52.376 44.6015 48.7371 44.4929 47.7071 44.6569ZM64.2048 44.5893C64.1043 44.6156 63.7069 44.6723 63.3215 44.7151L62.621 44.7932V46.4293V48.0653L63.2589 48.1418C64.0241 48.2333 64.4586 48.5304 64.6549 49.0962C64.7617 49.4046 64.802 51.754 64.8071 57.9801L64.814 66.4446H67.2506H69.6872L69.6887 59.8269C69.6898 54.6262 69.7257 53.0739 69.8565 52.5773C70.5851 49.8125 73.1735 48.0173 75.7996 48.4556C76.2741 48.5348 76.9706 48.7466 77.3474 48.9262C78.3048 49.3826 79.32 50.4396 79.6879 51.3632L79.9819 52.1011L80.0161 59.2729L80.0504 66.4446H82.4832H84.916V59.6203C84.916 55.3973 84.8657 52.4309 84.7842 51.8381C84.1184 47.0005 80.863 44.3183 75.9615 44.5691C72.9566 44.7228 70.6118 45.8352 69.5942 47.5897L69.2638 48.1594L69.1716 47.5117C68.8925 45.5515 67.7985 44.6661 65.5537 44.584C64.9124 44.5605 64.3053 44.563 64.2048 44.5893ZM95.0697 44.7113C93.0188 45.0874 91.5505 45.8123 90.3375 47.0474C89.3245 48.0788 88.8697 48.9517 88.6704 50.2472C88.229 53.1171 89.5627 55.1238 92.5914 56.1467C93.5603 56.474 94.4676 56.6494 97.7211 57.1382C100.179 57.5074 101.553 57.9366 102.148 58.5203C102.648 59.0117 102.877 59.7362 102.758 60.4564C102.488 62.0935 101.226 63.024 98.8047 63.3697C96.0043 63.7696 93.1672 62.4613 92.8785 60.6368L92.8039 60.1655H90.4423H88.0807L88.1524 60.6887C88.5766 63.7875 90.7 65.9229 94.0695 66.6394C95.546 66.9533 97.7581 67.0852 99.1599 66.9429C103.001 66.5527 105.377 65.2325 106.541 62.84C106.972 61.9561 107.012 61.7825 107.065 60.5803C107.16 58.4194 106.75 57.2171 105.535 56.0948C104.279 54.935 102.69 54.4003 98.8047 53.8297C96.466 53.4863 94.8561 53.132 94.2897 52.836C93.0116 52.1681 92.8741 50.3397 94.0252 49.3183C95.4361 48.0665 98.3233 47.7479 100.56 48.5972C101.51 48.958 102.303 49.7442 102.412 50.4334L102.491 50.9315H104.623H106.755L106.675 50.2851C106.311 47.3441 104.059 45.3749 100.303 44.7129C99.0343 44.4894 96.2846 44.4886 95.0697 44.7113ZM139.74 44.5893C139.639 44.6156 139.242 44.6723 138.857 44.7151L138.156 44.7932V46.4293V48.0653L138.781 48.1402C139.124 48.1813 139.54 48.3041 139.705 48.4132C140.354 48.8435 140.349 48.7634 140.349 57.9454V66.4446H142.786H145.222V59.8835C145.222 54.3893 145.253 53.2048 145.409 52.5988C146.133 49.7898 148.681 48.0139 151.35 48.4576C153.681 48.8453 155.254 50.431 155.574 52.7167C155.641 53.1954 155.696 56.4388 155.697 60.0116L155.7 66.4446H158.082H160.463L160.422 59.0266C160.383 51.8149 160.374 51.5813 160.112 50.6237C159.533 48.5098 158.493 46.9213 157.055 45.9556C155.447 44.8749 153.642 44.4332 151.384 44.5676C148.456 44.7418 146.131 45.8652 145.128 47.5907L144.796 48.1613L144.76 47.7919C144.551 45.6723 143.403 44.6687 141.089 44.584C140.447 44.5605 139.84 44.563 139.74 44.5893ZM181.893 44.6738C179.385 45.0351 176.75 46.4818 175.236 48.3292C174.475 49.2585 173.455 51.2517 173.181 52.3473C172.733 54.1344 172.736 57.0156 173.187 58.9069C173.296 59.3621 173.626 60.2332 173.92 60.8426C175.939 65.0222 180.075 67.1967 185.244 66.7956C188.206 66.5656 191.085 65.1239 192.827 62.9982C193.628 62.0206 194.598 60.0777 194.948 58.7496C195.328 57.3082 195.334 54.0352 194.96 52.5201C193.882 48.1505 190.602 45.3566 185.731 44.6566C184.707 44.5094 182.98 44.5172 181.893 44.6738ZM198.462 44.5893C198.362 44.6156 197.964 44.6723 197.579 44.7151L196.879 44.7932V46.4293V48.0653L197.516 48.1418C198.206 48.2243 198.679 48.5053 198.917 48.9734C199.032 49.1998 199.068 51.2863 199.07 57.857L199.071 66.4446H201.508H203.945V59.9062C203.945 52.8507 203.964 52.598 204.613 51.304C205.33 49.874 206.861 48.7593 208.538 48.4458C210.551 48.0697 212.889 49.2244 213.811 51.0502C214.35 52.118 214.418 52.8954 214.42 58.0211C214.421 61.0789 214.472 63.0838 214.559 63.521C214.746 64.4608 215.372 65.5608 215.994 66.0434C216.836 66.6953 217.603 66.8532 219.59 66.7839C220.534 66.751 221.401 66.6831 221.519 66.6327C221.706 66.5527 221.732 66.3518 221.732 65.0155V63.4897L221.031 63.4879C220.228 63.4858 219.851 63.3263 219.49 62.8346C219.242 62.4976 219.232 62.3218 219.164 56.9864C219.1 51.9015 219.075 51.4143 218.838 50.5454C218.298 48.5648 217.284 47.0167 215.869 46.0128C214.303 44.9012 212.539 44.4504 210.219 44.5691C207.226 44.7221 204.866 45.8422 203.851 47.5907L203.52 48.1613L203.433 47.4584C203.385 47.0716 203.236 46.5374 203.101 46.2711C202.797 45.6681 202.026 44.9897 201.42 44.7911C200.966 44.6426 198.818 44.496 198.462 44.5893ZM164.593 55.6716V66.4446H166.969H169.345V55.6716V44.8986H166.969H164.593V55.6716ZM52.2146 48.6427C52.6892 48.7437 53.3471 48.9333 53.6766 49.0641L54.2756 49.3018L54.3129 52.1174C54.3816 57.2976 53.9264 59.3871 52.3532 61.1119C50.589 63.0461 46.7329 63.0832 44.7046 61.1854C43.4299 59.9927 42.8274 58.3219 42.8498 56.041C42.8887 52.0611 45.1271 49.1024 48.5816 48.4648C49.3405 48.3248 51.1337 48.4126 52.2146 48.6427ZM185.821 49.0306C186.902 49.2953 187.728 49.7837 188.597 50.6717C189.556 51.6507 190.077 52.6677 190.368 54.1269C191.255 58.575 188.26 62.6279 184.086 62.6279C181.862 62.6279 179.655 61.4038 178.55 59.5585C177.859 58.4036 177.573 57.2484 177.576 55.61C177.578 53.4968 178.063 52.11 179.24 50.8528C180.92 49.0571 183.271 48.4063 185.821 49.0306ZM319.318 52.9099C320.377 53.0836 321.098 53.4227 321.735 54.0462C323.822 56.0916 323.364 59.8478 320.844 61.3402C319.838 61.9361 319.13 62.0085 314.293 62.0104L309.816 62.0123V57.3953V52.7783L314.171 52.7793C316.636 52.7797 318.87 52.8365 319.318 52.9099ZM225.878 61.2814C225.328 61.5141 224.779 62.0203 224.509 62.5427C224.112 63.3103 224.126 64.7068 224.537 65.4542C225.567 67.3277 228.496 67.3277 229.526 65.4542C229.772 65.0069 229.828 64.7351 229.828 63.9822C229.828 62.854 229.498 62.1557 228.696 61.5868C228.225 61.2525 228.061 61.2089 227.174 61.1829C226.626 61.1671 226.043 61.2113 225.878 61.2814ZM227.98 61.6856C228.612 61.9531 229.254 62.7649 229.351 63.4186C229.491 64.3593 229.324 65.0458 228.82 65.6112C228.287 66.2078 227.782 66.4446 227.043 66.4446C226.047 66.4446 225.316 65.9644 224.887 65.0287C224.332 63.818 224.893 62.2192 226.057 61.6943C226.532 61.4799 227.483 61.4756 227.98 61.6856ZM226.118 63.9822C226.118 65.0787 226.151 65.3365 226.293 65.3365C226.408 65.3365 226.482 65.1768 226.507 64.8748C226.538 64.4851 226.592 64.4081 226.849 64.3811C227.084 64.3564 227.232 64.4619 227.496 64.8428C227.704 65.1416 227.936 65.3365 228.085 65.3365C228.311 65.3365 228.301 65.2984 227.967 64.8712L227.602 64.406L227.896 64.1419C228.262 63.8122 228.285 63.2175 227.945 62.8741C227.752 62.6784 227.539 62.6279 226.91 62.6279H226.118V63.9822ZM227.677 63.145C228.069 63.5403 227.547 64.1599 226.887 64.0835C226.578 64.0477 226.541 63.9919 226.507 63.5205L226.469 62.9972H227C227.292 62.9972 227.597 63.0637 227.677 63.145Z" fill="#00A6CA"/>
<path d="M114.098 82.642C114.098 83.434 114.71 83.83 115.304 83.812C115.88 83.794 116.456 83.416 116.456 82.642C116.456 81.886 115.88 81.49 115.286 81.49C114.692 81.49 114.098 81.868 114.098 82.642ZM116.258 85.414H114.296V94H116.258V85.414ZM127.309 94V88.906C127.309 86.764 126.229 85.144 123.871 85.144C122.737 85.144 121.405 85.558 120.919 86.656C120.919 85 119.461 85.072 118.201 85.306V86.584C119.083 86.53 119.119 86.818 119.119 87.844V94H121.099V89.068C121.099 87.664 122.071 86.71 123.295 86.71C124.465 86.728 125.347 87.556 125.329 88.906V94H127.309ZM136.154 86.728C136.154 85.198 135.056 84.964 133.616 85.252L133.634 86.602C134.642 86.602 134.552 87.088 134.552 88.096V98.464H136.514V93.406C137.234 93.838 137.99 94.054 138.71 94.09C141.032 94.198 143.048 92.398 143.048 89.608C143.048 87.232 141.68 85.09 139.124 85.09C137.882 85.09 136.658 85.522 136.154 86.728ZM136.478 89.248C136.478 87.952 137.378 86.836 138.728 86.836C140.294 86.836 141.068 88.168 141.068 89.608C141.068 91.372 140.006 92.326 138.692 92.38C137.99 92.416 137.198 92.182 136.478 91.678V89.248ZM150.691 92.542C150.745 94.252 151.807 94.252 153.175 94.018L153.139 92.902C152.203 92.992 152.239 92.47 152.239 91.66V88.24C152.239 85.846 150.367 85.108 148.261 85.108C147.109 85.108 145.939 85.342 145.057 85.792L145.345 87.196C146.425 86.656 150.331 85.9 150.331 88.186V89.05C149.557 88.618 148.603 88.402 147.757 88.402C145.849 88.402 144.337 89.392 144.391 91.462C144.391 93.154 145.921 94.162 147.505 94.162C148.729 94.162 150.115 93.694 150.691 92.542ZM150.331 91.03C150.133 92.128 148.927 92.614 147.901 92.614C147.109 92.614 146.317 92.218 146.317 91.354C146.317 90.292 147.127 89.734 148.081 89.716C148.855 89.698 149.683 89.932 150.331 90.31V91.03ZM157.06 86.584C156.97 85.18 155.566 84.964 154.288 85.252L154.306 86.584C155.242 86.53 155.242 86.926 155.242 87.7V94H157.186V88.978C157.186 87.574 158.23 86.818 159.4 86.818C160.03 86.818 160.606 86.998 161.128 87.34L161.614 85.648C161.056 85.234 160.336 85.018 159.616 85.036C158.554 85.036 157.402 85.576 157.06 86.584ZM165.865 82.66H164.137L163.939 85.342H162.175V86.62L163.939 86.746V90.688C163.939 94.09 166.261 94.774 169.231 93.856L169.033 92.38C167.251 93.01 165.865 92.866 165.865 90.652V86.746H168.871V85.342H165.865V82.66ZM179.322 94V88.906C179.322 86.764 178.242 85.144 175.884 85.144C174.75 85.144 173.418 85.558 172.932 86.656C172.932 85 171.474 85.072 170.214 85.306V86.584C171.096 86.53 171.132 86.818 171.132 87.844V94H173.112V89.068C173.112 87.664 174.084 86.71 175.308 86.71C176.478 86.728 177.36 87.556 177.342 88.906V94H179.322ZM185.72 85.126C183.362 85.126 181.274 86.584 181.22 89.482C181.13 92.416 183.236 94.252 186.098 94.198C187.196 94.198 188.366 93.91 189.374 93.46L189.122 92.002C188.096 92.452 187.052 92.596 185.972 92.542C184.388 92.542 183.146 91.606 183.146 90.022H189.554C190.13 87.142 188.762 85.126 185.72 85.126ZM185.702 86.638C186.944 86.638 188.024 87.322 187.97 88.636H183.182C183.452 87.268 184.406 86.638 185.702 86.638ZM193.798 86.584C193.708 85.18 192.304 84.964 191.026 85.252L191.044 86.584C191.98 86.53 191.98 86.926 191.98 87.7V94H193.924V88.978C193.924 87.574 194.968 86.818 196.138 86.818C196.768 86.818 197.344 86.998 197.866 87.34L198.352 85.648C197.794 85.234 197.074 85.018 196.354 85.036C195.292 85.036 194.14 85.576 193.798 86.584ZM199.096 91.444C199.24 93.604 201.148 94.216 203.074 94.216C205 94.216 206.854 93.388 206.854 91.462C206.854 89.41 205.09 89.104 203.272 88.87C201.922 88.708 201.22 88.546 201.202 87.826C201.148 87.052 202.084 86.62 202.984 86.62C203.902 86.62 204.946 86.89 204.946 87.754H206.674C206.728 86.026 204.982 85.144 202.984 85.144C201.094 85.144 199.294 86.008 199.294 87.862C199.348 89.824 201.346 90.022 203.128 90.256C204.262 90.4 205.072 90.634 205.072 91.426C205.018 92.488 203.956 92.758 203.002 92.758C202.066 92.758 201.076 92.344 201.022 91.444H199.096ZM217.038 94V88.87C217.038 86.638 215.994 85.126 213.6 85.126C212.448 85.126 211.548 85.396 210.81 86.386V80.842H208.848V94H210.81V88.978C210.81 87.556 211.764 86.692 213.042 86.692C214.266 86.71 215.076 87.43 215.058 88.87V94H217.038ZM219.303 82.642C219.303 83.434 219.915 83.83 220.509 83.812C221.085 83.794 221.661 83.416 221.661 82.642C221.661 81.886 221.085 81.49 220.491 81.49C219.897 81.49 219.303 81.868 219.303 82.642ZM221.463 85.414H219.501V94H221.463V85.414ZM225.926 86.728C225.926 85.198 224.828 84.964 223.388 85.252L223.406 86.602C224.414 86.602 224.324 87.088 224.324 88.096V98.464H226.286V93.406C227.006 93.838 227.762 94.054 228.482 94.09C230.804 94.198 232.82 92.398 232.82 89.608C232.82 87.232 231.452 85.09 228.896 85.09C227.654 85.09 226.43 85.522 225.926 86.728ZM226.25 89.248C226.25 87.952 227.15 86.836 228.5 86.836C230.066 86.836 230.84 88.168 230.84 89.608C230.84 91.372 229.778 92.326 228.464 92.38C227.762 92.416 226.97 92.182 226.25 91.678V89.248ZM242.255 94.09L244.559 88.852L246.881 94.09H247.763L251.201 85.54V85.324H249.077C248.717 86.332 248.339 87.304 247.997 88.312L247.169 90.706H247.115L245.045 85.522H244.073L242.003 90.688H241.967L241.157 88.312L240.059 85.324H237.953V85.54L241.373 94.09H242.255ZM252.649 82.642C252.649 83.434 253.261 83.83 253.855 83.812C254.431 83.794 255.007 83.416 255.007 82.642C255.007 81.886 254.431 81.49 253.837 81.49C253.243 81.49 252.649 81.868 252.649 82.642ZM254.809 85.414H252.847V94H254.809V85.414ZM260.172 82.66H258.444L258.246 85.342H256.482V86.62L258.246 86.746V90.688C258.246 94.09 260.568 94.774 263.538 93.856L263.34 92.38C261.558 93.01 260.172 92.866 260.172 90.652V86.746H263.178V85.342H260.172V82.66ZM273.341 94V88.87C273.341 86.638 272.297 85.126 269.903 85.126C268.751 85.126 267.851 85.396 267.113 86.386V80.842H265.151V94H267.113V88.978C267.113 87.556 268.067 86.692 269.345 86.692C270.569 86.71 271.379 87.43 271.361 88.87V94H273.341Z" fill="#2C2C2C"/>
<path fill-rule="evenodd" clip-rule="evenodd" d="M292.041 77.9563C287.351 81.2245 283.536 83.9877 283.563 84.0967C283.606 84.2749 288.477 91.2652 288.821 91.6428C288.938 91.7723 305.888 80.2106 306.116 79.8458C306.194 79.7193 300.808 71.9767 300.657 72.0001C300.608 72.0077 296.73 74.6881 292.041 77.9563ZM312.545 81.1497C310.244 81.8628 309.164 84.2403 310.229 86.2484C310.77 87.2691 311.612 87.7255 314.168 88.3842C315.821 88.8103 316.274 89.0009 316.679 89.4411C317.241 90.0526 317.28 90.3186 316.911 91.0263C316.565 91.6895 315.626 92.1103 314.492 92.1103C313.248 92.1103 312.404 91.7292 311.948 90.9611C311.584 90.3485 311.539 90.3289 310.493 90.3289H309.414L309.534 90.8188C310.093 93.1021 312.563 94.3838 315.501 93.9142C317.987 93.517 319.327 92.1537 319.326 90.0229C319.325 88.1178 318.3 87.2173 315.226 86.4219C314.106 86.1321 312.992 85.7662 312.75 85.6087C311.788 84.9833 311.863 83.9081 312.923 83.1305C313.302 82.8518 313.69 82.7597 314.465 82.7639C315.637 82.7705 316.316 83.112 316.786 83.9302C317.059 84.4078 317.163 84.4484 318.115 84.4494C319.315 84.4507 319.346 84.3794 318.701 83.1049C317.973 81.6659 316.503 80.9005 314.48 80.9076C313.838 80.9098 312.967 81.0188 312.545 81.1497ZM337.851 81.2258C336.154 81.8074 335.303 82.9446 335.303 84.6287C335.303 86.6822 336.226 87.5354 339.256 88.2815C341.721 88.8882 342.372 89.2831 342.45 90.2185C342.546 91.3649 341.554 92.1104 339.934 92.1099C338.769 92.1097 337.851 91.6822 337.368 90.9148C337.032 90.3802 336.941 90.3423 335.976 90.3359C334.813 90.328 334.754 90.4226 335.222 91.5345C336.005 93.3955 338.358 94.3417 341.071 93.8875C343.454 93.4888 344.71 92.168 344.712 90.0617C344.713 88.0319 343.812 87.2032 340.805 86.4666C337.954 85.7685 337.276 85.2808 337.561 84.1354C337.791 83.2098 338.949 82.6018 340.217 82.7403C341.26 82.8541 341.838 83.195 342.215 83.9177C342.475 84.4176 342.558 84.4505 343.546 84.4505H344.599L344.408 83.7027C343.84 81.4826 340.635 80.2719 337.851 81.2258ZM330.097 83.1145V84.2724H329.379H328.661V85.074V85.8756H329.379H330.097L330.097 88.8593C330.098 91.343 330.15 91.9474 330.412 92.4665C330.837 93.3112 331.704 93.7129 333.104 93.7131L334.226 93.7135V92.8581V92.0027L333.559 91.984C332.368 91.9505 332.234 91.5883 332.291 88.5666L332.341 85.9647L333.283 85.9109L334.226 85.8569V85.0647V84.2724H333.238H332.251V83.1145V81.9566H331.174H330.097V83.1145ZM321.92 84.5419C320.974 85.0184 320.496 85.5384 320.303 86.2976C320.187 86.7597 320.199 86.7663 321.137 86.7663C321.928 86.7663 322.175 86.6845 322.598 86.2828C323.027 85.8747 323.263 85.7992 324.11 85.7992C324.983 85.7992 325.168 85.8629 325.541 86.2926C326.005 86.8288 326.144 88.0082 325.744 88.0196C324.01 88.0686 321.964 88.3901 321.325 88.7138C318.854 89.9643 319.627 93.3891 322.475 93.8129C323.475 93.9618 324.659 93.6144 325.292 92.9865C325.581 92.7006 325.851 92.4665 325.892 92.4665C325.934 92.4665 325.968 92.7471 325.968 93.09V93.7135H327.045H328.122L328.115 90.5516C328.106 87.0799 327.979 86.0749 327.459 85.3665C326.502 84.0617 323.7 83.6446 321.92 84.5419ZM359.02 84.3989C358.686 84.5619 358.263 84.9409 358.078 85.2409L357.743 85.7865L357.742 85.0295L357.742 84.2724H356.665H355.588V88.9929V93.7135H356.653H357.719L357.775 90.493L357.831 87.2725L358.502 86.6631C359.11 86.1107 359.273 86.0537 360.252 86.0537H361.332V85.074V84.0943L360.479 84.0983C360.01 84.1005 359.354 84.2359 359.02 84.3989ZM363.877 84.297C362.951 84.5617 361.764 85.8553 361.434 86.9602C360.81 89.0444 361.221 91.466 362.397 92.6331C364.18 94.4025 367.624 94.2555 369.213 92.342C370.051 91.3336 369.97 91.0415 368.852 91.0415C368.102 91.0415 367.875 91.1179 367.601 91.4638C366.94 92.2973 365.016 92.3944 364.173 91.6366C363.679 91.1936 363.307 90.4429 363.307 89.8925V89.4383H366.654H370L369.897 88.2072C369.67 85.5273 368.173 84.0878 365.64 84.1142C364.998 84.121 364.205 84.2031 363.877 84.297ZM345.742 87.8796C345.804 91.0972 345.851 91.5637 346.182 92.1993C346.848 93.4778 348.139 94.0521 349.792 93.8061C350.442 93.7094 350.799 93.5197 351.338 92.9844C351.724 92.6016 352.07 92.2884 352.108 92.2884C352.146 92.2884 352.177 92.609 352.177 93.0009V93.7135H353.164H354.151V88.9929V84.2724H353.074H351.997V87.3986C351.997 90.8952 351.88 91.3594 350.897 91.7633C349.588 92.3016 348.374 91.8603 348.058 90.7313C347.955 90.3631 347.87 88.7592 347.87 87.1671L347.869 84.2724H346.771H345.673L345.742 87.8796ZM367.094 86.346C367.376 86.6261 367.659 87.1159 367.723 87.4343L367.839 88.0132H365.573C363.076 88.0132 363.032 87.989 363.585 86.9276C364.263 85.6264 366.068 85.3269 367.094 86.346ZM325.968 89.9816C325.968 91.2554 325.015 92.1103 323.594 92.1103C322.555 92.1103 322.019 91.7218 322.019 90.9698C322.019 89.9194 322.774 89.5817 325.385 89.4644C325.921 89.4404 325.968 89.4821 325.968 89.9816Z" fill="#116366"/>
<path fill-rule="evenodd" clip-rule="evenodd" d="M289.527 92.1745C284.837 95.4411 281 98.2102 281 98.3282C281 98.6053 286.157 105.987 286.358 105.998C286.592 106.011 303.529 94.1978 303.529 94.0223C303.529 93.8736 298.966 87.324 298.355 86.5945C298.06 86.243 297.878 86.3579 289.527 92.1745Z" fill="#262261"/>
</svg>
