<svg width="68" height="68" viewBox="0 0 68 68" fill="none" xmlns="http://www.w3.org/2000/svg">
<path fill-rule="evenodd" clip-rule="evenodd" d="M34 64C50.5685 64 64 50.5685 64 34C64 17.4315 50.5685 4 34 4C17.4315 4 4 17.4315 4 34C4 50.5685 17.4315 64 34 64ZM34 68C52.7777 68 68 52.7777 68 34C68 15.2223 52.7777 0 34 0C15.2223 0 0 15.2223 0 34C0 52.7777 15.2223 68 34 68Z" fill="#006685"/>
<path fill-rule="evenodd" clip-rule="evenodd" d="M27.5757 12.1929C25.9801 12.6165 24.7537 13.54 24.1168 14.797C23.7614 15.4987 23.4653 16.8992 23.4586 17.9108L23.4544 18.5473L24.0907 18.5431C25.9318 18.5309 27.6649 17.8823 28.5527 16.8734C29.4479 15.8563 30 14.3111 30 12.8233V12L29.1212 12.008C28.6378 12.0124 27.9424 12.0957 27.5757 12.1929ZM19.5592 13.1215C19.0758 13.5201 18.2096 14.7087 17.8519 15.4643C17.4804 16.2489 17.4542 16.3889 17.4542 17.5871C17.4542 18.8428 17.4644 18.8902 17.9391 19.8301C18.5681 21.0759 20.6679 23.2492 21.8786 23.9076C23.4283 24.7502 25.0731 24.8317 26.553 24.139C27.3579 23.7622 29.0303 22.4841 29.0303 22.2459C29.0303 22.1726 28.8258 21.921 28.5757 21.6867C27.1261 20.3281 25.4292 19.6367 23.9664 19.8087C23.27 19.8906 22.0341 20.3614 21.4776 20.7568C21.0419 21.0665 20.9359 20.9604 21.2455 20.5246C21.6407 19.968 22.1114 18.7318 22.1934 18.0352C22.3652 16.572 21.6741 14.8746 20.3159 13.4247C19.8406 12.9172 19.8179 12.9083 19.5592 13.1215ZM14.6461 18.032C13.9061 18.824 13.4988 19.4021 13.1254 20.1911C12.7535 20.9765 12.7268 21.1183 12.7268 22.306C12.7268 23.4769 12.7569 23.6425 13.1006 24.368C13.9022 26.0599 15.9437 28.102 17.6352 28.9038C18.3605 29.2476 18.5261 29.2777 19.6967 29.2777C20.8835 29.2777 21.0262 29.2508 21.8087 28.8801C22.6831 28.466 24.3029 27.2346 24.3029 26.9841C24.3029 26.9047 24.1255 26.6749 23.9089 26.4734C21.7 24.419 19.3895 24.006 17.1644 25.2678C16.7383 25.5095 16.3687 25.6861 16.343 25.6605C16.3174 25.6348 16.4944 25.2652 16.7362 24.839C18.0072 22.5999 17.5993 20.3184 15.5304 18.0927C15.3289 17.876 15.1177 17.6986 15.0609 17.6986C15.0042 17.6986 14.8175 17.8486 14.6461 18.032ZM9.69642 22.9902C9.0764 23.7058 8.86318 24.019 8.38766 24.9128C8.02013 25.6037 8.00061 25.7075 8.00001 26.974C7.9994 28.1864 8.03043 28.373 8.34062 29.0248C8.77167 29.9307 9.21156 30.554 10.0237 31.4092C10.9162 32.3493 11.9554 33.1656 12.8321 33.6154C13.5369 33.977 13.6473 33.9969 14.9693 33.9997C16.3471 34.0025 16.3731 33.9974 17.2118 33.552C18.1653 33.0458 19.5755 31.9397 19.5755 31.698C19.5755 31.4768 18.4496 30.541 17.5519 30.0161C15.8966 29.0484 14.2453 29.0321 12.4735 29.9658L11.5551 30.4497L12.0389 29.5311C13.206 27.3154 12.9078 25.3508 11.0691 23.1407C10.7426 22.7483 10.4093 22.428 10.3284 22.4289C10.2475 22.4298 9.96309 22.6824 9.69642 22.9902Z" fill="#006685"/>
<path fill-rule="evenodd" clip-rule="evenodd" d="M42.2272 12.0473C40.9316 12.3196 39.8141 12.9277 38.8629 13.8783C38.0519 14.6887 37.5735 15.4692 37.2031 16.5864C37.0167 17.1489 37 17.2878 37 18.2803C37 19.2708 37.017 19.4129 37.2021 19.9742C37.4851 20.8319 37.8868 21.574 38.447 22.2736C39.2909 23.3277 40.0613 23.8064 41.8255 24.3733C44.0097 25.0752 45.0063 25.8198 45.6571 27.236C45.7892 27.5234 46.0427 28.2857 46.2206 28.9299C46.8824 31.3276 47.1407 31.8704 48.067 32.8109C49.0267 33.7852 50.1335 34.4382 51.4912 34.8311C51.9743 34.9709 52.2385 34.9984 53.1142 34.9999C54.0028 35.0015 54.2523 34.9758 54.7732 34.829C57.2533 34.1304 59.1298 32.2553 59.8289 29.777C59.9758 29.2565 60.0015 29.0071 59.9999 28.1192C59.9984 27.2441 59.9709 26.9802 59.8309 26.4974C59.4498 25.1821 58.81 24.0784 57.8933 23.1548C56.9075 22.1618 56.0803 21.7486 53.8355 21.1281C51.0222 20.3504 50.4793 19.8375 49.4863 17.0189C49.2698 16.4044 48.9921 15.6909 48.8691 15.4332C48.1871 14.0033 46.6972 12.7794 44.9633 12.2243C44.4609 12.0636 44.1873 12.0238 43.4485 12.0041C42.9526 11.9909 42.403 12.0103 42.2272 12.0473ZM41.0682 14.9231C41.4123 15.1666 41.5338 15.6901 41.3366 16.0797C41.22 16.3098 40.8078 16.5864 40.5815 16.5864C40.3009 16.5864 39.9089 16.3652 39.7616 16.1237C39.2506 15.2864 40.2645 14.3547 41.0682 14.9231ZM42.8061 17.2027C43.07 17.339 43.3036 17.7043 43.304 17.9811C43.305 18.8054 42.324 19.2253 41.7462 18.6479C41.5343 18.4362 41.501 18.355 41.501 18.0513C41.501 17.3299 42.1879 16.8832 42.8061 17.2027ZM39.8835 17.588C40.3811 17.8139 40.5604 18.4082 40.2728 18.8793C39.9658 19.3825 39.2939 19.4409 38.8552 19.0026C38.6572 18.8048 38.6158 18.7089 38.616 18.4497C38.6163 18.0596 38.8081 17.7329 39.1293 17.5747C39.438 17.4227 39.5226 17.4242 39.8835 17.588Z" fill="#006685"/>
<path d="M44.4893 53.7531C41.8765 53.3763 41.6796 53.0163 41.6796 53.0163C42.2165 49.9736 40.5522 46.121 37.8261 44.0344C34.2051 41.2617 28.6932 43.2752 24.4042 39.057C23.402 38.0728 23.9866 50.0973 29.3554 54.653C33.2805 57.9825 37.9036 56.9589 39.1742 56.4133C40.3255 55.9184 41.1308 55.0129 41.1308 55.0129C43.2247 55.6203 44.2626 55.5866 44.2626 55.5866C44.9963 55.6709 45.3662 53.8768 44.4893 53.7531ZM39.7051 53.9556C32.8272 52.0377 27.6553 45.3055 27.6553 45.3055C27.6553 45.3055 32.1948 50.3561 40.1943 52.8138C40.2062 53.1963 39.9676 53.7418 39.7051 53.9556Z" fill="#006685"/>
<path fill-rule="evenodd" clip-rule="evenodd" d="M13.9247 26.3008C17.2218 21.8979 21.4899 18.2268 24.4289 16.1797L25.572 17.8208C22.7683 19.7737 18.6685 23.3026 15.5256 27.4997C12.3587 31.7286 10.3164 36.4273 11.2131 40.7993L9.25388 41.2012C8.18164 35.9732 10.6515 30.6719 13.9247 26.3008Z" fill="#006685"/>
</svg>
