<svg width="72" height="56" viewBox="0 0 72 56" fill="none" xmlns="http://www.w3.org/2000/svg">
<path d="M35.218 32.282C36.2227 32.8083 37.3593 33.0536 38.5002 32.9902C40.1839 33.0255 41.8135 32.4143 43.0318 31.2906C44.2501 30.1668 44.9579 28.6222 45 26.995C44.9686 25.7977 44.5831 24.634 43.8891 23.6417L39.6938 17.6145C39.5622 17.4254 39.3845 17.2704 39.1764 17.1632C38.9683 17.056 38.736 17 38.5002 17C38.2644 17 38.0322 17.056 37.824 17.1632C37.6159 17.2704 37.4382 17.4254 37.3066 17.6145L33.0333 23.7616C32.3992 24.6804 32.0426 25.7519 32.0036 26.8558C31.9646 27.9596 32.2447 29.0521 32.8125 30.0106C33.3803 30.9691 34.2133 31.7556 35.218 32.282Z" fill="#006685"/>
<path d="M42.2279 11.4615C42.9234 11.8562 43.7103 12.0402 44.5001 11.9927C45.6658 12.0191 46.7939 11.5607 47.6374 10.7179C48.4808 9.87512 48.9708 8.71663 49 7.49628C48.9782 6.59826 48.7114 5.72553 48.2309 4.98126L45.3265 0.460892C45.2354 0.319022 45.1124 0.202781 44.9683 0.122409C44.8242 0.042037 44.6634 0 44.5001 0C44.3369 0 44.1761 0.042037 44.032 0.122409C43.8879 0.202781 43.7649 0.319022 43.6738 0.460892L40.7154 5.0712C40.2763 5.76033 40.0295 6.56394 40.0025 7.39181C39.9755 8.21969 40.1694 9.03905 40.5625 9.75793C40.9556 10.4768 41.5323 11.0667 42.2279 11.4615Z" fill="#006685"/>
<path d="M26.2279 15.4615C26.9234 15.8562 27.7103 16.0402 28.5001 15.9927C29.6658 16.0191 30.7939 15.5607 31.6374 14.7179C32.4808 13.8751 32.9708 12.7166 33 11.4963C32.9782 10.5983 32.7114 9.72553 32.2309 8.98126L29.3265 4.46089C29.2354 4.31902 29.1124 4.20278 28.9683 4.12241C28.8242 4.04204 28.6634 4 28.5001 4C28.3369 4 28.1761 4.04204 28.032 4.12241C27.8879 4.20278 27.7649 4.31902 27.6738 4.46089L24.7154 9.0712C24.2763 9.76033 24.0295 10.5639 24.0025 11.3918C23.9755 12.2197 24.1694 13.0391 24.5625 13.7579C24.9556 14.4768 25.5323 15.0667 26.2279 15.4615Z" fill="#006685"/>
<path fill-rule="evenodd" clip-rule="evenodd" d="M7.83059 19.6465C5.08272 21.5567 4 23.4458 4 25.0688C4 26.2834 4.59231 27.63 6.06351 29.0553C7.54071 30.4864 9.78283 31.8674 12.7167 33.0695C18.5747 35.4699 26.8056 37.0008 36 37.0008C45.1944 37.0008 53.4253 35.4699 59.2833 33.0695C62.2172 31.8674 64.4593 30.4864 65.9365 29.0553C67.4077 27.63 68 26.2834 68 25.0688C68 23.4458 66.9173 21.5567 64.1694 19.6465C61.4645 17.7662 57.4742 16.1167 52.5387 14.9468L53.4613 11.0547C58.6885 12.2937 63.1981 14.0998 66.4526 16.3621C69.664 18.5946 72 21.5351 72 25.0688C72 27.7015 70.6895 30.0199 68.7197 31.9282C66.7559 33.8307 64.0189 35.4519 60.8 36.7709C54.3524 39.4128 45.5833 41.0008 36 41.0008C26.4167 41.0008 17.6476 39.4128 11.2 36.7709C7.98112 35.4519 5.24405 33.8307 3.28027 31.9282C1.31048 30.0199 0 27.7015 0 25.0688C0 21.5351 2.33597 18.5946 5.54745 16.3621C8.80187 14.0998 13.3115 12.2937 18.5387 11.0547L19.4613 14.9468C14.5258 16.1167 10.5355 17.7662 7.83059 19.6465Z" fill="#006685"/>
<path fill-rule="evenodd" clip-rule="evenodd" d="M4 41.0587V25H0V42.0425L0.210204 42.464C1.86037 45.773 6.21042 49.1234 12.1809 51.6275C18.2636 54.1787 26.3646 56 36 56C45.6211 56 53.5825 54.2909 59.5981 51.8508C65.5396 49.4407 69.8037 46.2228 71.7162 43.027L72 42.5527V25H68V41.4091C66.5509 43.4737 63.2893 46.0369 58.0945 48.1441C52.6015 50.3723 45.1565 52 36 52C26.8577 52 19.2868 50.2703 13.728 47.9388C8.40422 45.7059 5.20426 43.0453 4 41.0587Z" fill="#006685"/>
<path d="M12 42C12 43.1046 11.1046 44 10 44C8.89543 44 8 43.1046 8 42C8 40.8954 8.89543 40 10 40C11.1046 40 12 40.8954 12 42Z" fill="#006685"/>
<path d="M28 48C28 49.1046 27.1046 50 26 50C24.8954 50 24 49.1046 24 48C24 46.8954 24.8954 46 26 46C27.1046 46 28 46.8954 28 48Z" fill="#006685"/>
<path d="M45 44C45 45.1046 44.1046 46 43 46C41.8954 46 41 45.1046 41 44C41 42.8954 41.8954 42 43 42C44.1046 42 45 42.8954 45 44Z" fill="#006685"/>
<path d="M36 44C36 45.1046 35.1046 46 34 46C32.8954 46 32 45.1046 32 44C32 42.8954 32.8954 42 34 42C35.1046 42 36 42.8954 36 44Z" fill="#006685"/>
<path d="M55 45C55 46.1046 54.1046 47 53 47C51.8954 47 51 46.1046 51 45C51 43.8954 51.8954 43 53 43C54.1046 43 55 43.8954 55 45Z" fill="#006685"/>
<path d="M62 40C62 41.1046 61.1046 42 60 42C58.8954 42 58 41.1046 58 40C58 38.8954 58.8954 38 60 38C61.1046 38 62 38.8954 62 40Z" fill="#006685"/>
<path d="M19 47C19 47.5523 18.5523 48 18 48C17.4477 48 17 47.5523 17 47C17 46.4477 17.4477 46 18 46C18.5523 46 19 46.4477 19 47Z" fill="#006685"/>
<path d="M26 43C26 43.5523 25.5523 44 25 44C24.4477 44 24 43.5523 24 43C24 42.4477 24.4477 42 25 42C25.5523 42 26 42.4477 26 43Z" fill="#006685"/>
<path d="M17 42C17 42.5523 16.5523 43 16 43C15.4477 43 15 42.5523 15 42C15 41.4477 15.4477 41 16 41C16.5523 41 17 41.4477 17 42Z" fill="#006685"/>
<path d="M7 37C7 37.5523 6.55228 38 6 38C5.44772 38 5 37.5523 5 37C5 36.4477 5.44772 36 6 36C6.55228 36 7 36.4477 7 37Z" fill="#006685"/>
<path d="M41 48C41 48.5523 40.5523 49 40 49C39.4477 49 39 48.5523 39 48C39 47.4477 39.4477 47 40 47C40.5523 47 41 47.4477 41 48Z" fill="#006685"/>
<path d="M52 41C52 41.5523 51.5523 42 51 42C50.4477 42 50 41.5523 50 41C50 40.4477 50.4477 40 51 40C51.5523 40 52 40.4477 52 41Z" fill="#006685"/>
</svg>
