<svg width="370" height="155" viewBox="0 0 370 155" fill="none" xmlns="http://www.w3.org/2000/svg">
<path fill-rule="evenodd" clip-rule="evenodd" d="M229.623 0.0877609C222.886 0.801119 216.8 4.53474 213.175 10.1787C211.895 12.1713 211.402 13.4609 211.293 15.1035C211.142 17.3806 212.04 19.1207 213.843 20.0426C215.037 20.6533 215.751 20.7859 218.229 20.8569C219.486 20.893 220.514 20.9484 220.514 20.9801C220.514 21.0119 220.235 21.9221 219.895 23.0029C218.981 25.9032 218.957 27.3638 219.797 29.0456C220.298 30.0476 220.87 30.6397 221.824 31.1452C223.391 31.9745 225.462 32.0733 227.628 31.4216C228.611 31.126 228.605 31.1404 228.131 30.1791C227.899 29.7087 227.632 28.9914 227.539 28.5852C227.421 28.0741 227.316 27.8595 227.2 27.8888C224.981 28.4479 224.06 28.3765 223.303 27.5869C222.978 27.2484 222.9 27.0564 222.853 26.4825C222.803 25.878 222.897 25.4706 223.573 23.339L224.35 20.8901H226.552H228.754L229.285 19.1972C229.577 18.2662 229.84 17.4351 229.868 17.3504C229.909 17.231 229.428 17.1965 227.723 17.1965H225.525L225.947 15.9346C226.179 15.2404 226.608 13.9108 226.901 12.9797L227.434 11.2868H225.522H223.611L222.666 14.25L221.721 17.2134L219.006 17.1741L216.292 17.135L215.789 16.7982C214.818 16.1487 214.811 15.0339 215.763 13.0261C216.384 11.719 217.467 10.3167 219.018 8.81267C225.28 2.74174 234.947 1.92361 242.234 6.84792C247.886 10.6676 251.127 17.479 250.501 24.2263C250.077 28.8017 248.233 32.7888 245.067 35.9724C243.519 37.5295 242.251 38.4806 240.47 39.4196C237.877 40.7867 235.429 41.4438 232.554 41.5445C229.718 41.6439 227.481 41.2583 224.84 40.2147C219.351 38.046 214.842 32.716 213.562 26.8842C213.424 26.256 213.374 26.1758 213.152 26.2289C213.013 26.2622 212.289 26.4107 211.543 26.559C210.798 26.7072 210.123 26.8689 210.044 26.9182C209.775 27.0862 210.502 29.7038 211.379 31.7247C213.684 37.0364 218.168 41.4426 223.446 43.583C234.341 48.0012 246.748 43.1782 251.894 32.525C255.727 24.5872 254.605 15.0517 249.024 8.14955C246.355 4.84906 242.203 2.0828 238.118 0.884595C235.657 0.162495 232.082 -0.172761 229.623 0.0877609ZM230.874 21.2297C229.655 25.0861 229.598 25.3161 229.553 26.5313C229.5 27.976 229.666 28.6833 230.292 29.6772C231.941 32.2946 236.141 32.5531 239.337 30.2336L239.862 29.8523L240.323 30.3672C240.888 30.9993 241.727 31.4423 242.793 31.6705C243.791 31.8844 245.328 31.8957 245.724 31.6921C246.014 31.5429 246.72 30.3575 247.171 29.2623L247.399 28.7083L245.987 28.6963C244.373 28.6828 243.715 28.4969 243.081 27.8764C242.862 27.6615 242.628 27.2812 242.561 27.0313C242.424 26.5154 242.362 26.7422 244.22 20.9428C244.851 18.9743 245.367 17.3259 245.367 17.28C245.367 17.2341 244.522 17.1965 243.489 17.1965H241.61L241.242 18.3354C241.04 18.9618 240.458 20.7857 239.95 22.3886C238.922 25.6319 238.55 26.3228 237.357 27.2083C235.826 28.344 234.31 28.5285 233.504 27.6775C232.865 27.004 232.898 26.8088 234.464 21.9447C235.248 19.5113 235.917 17.4476 235.951 17.3584C236 17.2288 235.627 17.1968 234.08 17.1975L232.149 17.1985L230.874 21.2297ZM0 37.4498V39.7275H4.50774H9.01548V53.0861V66.4446H11.513H14.0105V53.0861V39.7275H18.5183H23.026V37.4498V35.1721H11.513H0V37.4498ZM110.893 46.653L110.929 58.134L111.27 59.2421C112.28 62.5225 114.501 64.8059 117.865 66.0208C119.498 66.6106 120.834 66.8221 122.927 66.8224C128.836 66.8237 133.04 64.046 134.526 59.1595L134.8 58.2571L134.837 46.7146L134.875 35.1721H132.373H129.872L129.87 45.8528C129.868 54.6546 129.837 56.6801 129.693 57.367C129.198 59.7267 127.376 61.4704 124.792 62.0589C121.512 62.8054 117.998 61.4733 116.686 58.9866C115.968 57.6251 115.983 57.9033 115.983 46.0424V35.1721H113.42H110.858L110.893 46.653ZM165.867 35.5753C164.569 36.1025 164.106 36.8059 164.106 38.2501C164.106 38.9109 164.173 39.2978 164.354 39.675C164.997 41.0166 166.808 41.4822 168.351 40.7025C169.404 40.1708 169.768 39.54 169.767 38.2511C169.765 37.0625 169.431 36.3966 168.565 35.8558C168.067 35.545 167.823 35.4779 167.103 35.4537C166.627 35.4377 166.071 35.4924 165.867 35.5753ZM265.713 35.5039C263.806 35.7102 261.727 36.3197 260.084 37.1543C257.268 38.5845 255.007 40.8911 253.648 43.7208C251.573 48.0411 251.526 53.9659 253.533 58.2947C255.207 61.9037 258.46 64.7579 262.259 65.9503C263.837 66.4456 264.682 66.5789 266.702 66.6513C270.923 66.8028 274.038 65.8462 276.957 63.5019C278.949 61.9025 280.595 59.138 281.235 56.318L281.312 55.9794H278.869C276.651 55.9794 276.42 55.9992 276.354 56.1949C276.315 56.3133 276.085 56.8258 275.844 57.3337C275.282 58.518 273.595 60.2808 272.443 60.8872C270.006 62.1712 267.054 62.4752 264.457 61.7098C261.53 60.8473 259.484 59.0511 258.149 56.1702C257.382 54.5178 257.133 53.2837 257.129 51.1161C257.123 47.7121 257.996 45.2607 259.966 43.15C261.669 41.3258 263.588 40.3969 266.297 40.0859C268.306 39.8552 270.95 40.3839 272.655 41.3569C273.675 41.9389 275.318 43.6718 275.868 44.7447L276.325 45.6373H278.695C280.58 45.6373 281.064 45.604 281.064 45.4742C281.064 45.1617 280.486 43.5994 280.031 42.6824C278.738 40.0753 276.453 37.9318 273.663 36.7102C271.336 35.6909 268.275 35.2265 265.713 35.5039ZM285.084 37.8192V39.8507H287.338H289.593L289.562 51.0854L289.531 62.3201L287.125 62.3534L284.718 62.3868V64.4157V66.4446H292.028H299.338V64.4157V62.3868L296.932 62.3534L294.526 62.3201L294.495 51.0854L294.464 39.8507H296.718H298.973V37.8192V35.7877H292.028H285.084V37.8192ZM304.942 51.1235V66.4595L312.709 66.4155C320.256 66.3728 320.503 66.364 321.45 66.1015C325.654 64.9367 327.965 61.8898 327.968 57.5073C327.969 55.0471 327.419 53.5667 325.959 52.1011C325.186 51.3253 323.794 50.439 323.349 50.439C323.069 50.439 323.246 50.2398 323.842 49.8849C325.096 49.1378 326.177 47.5677 326.494 46.0314C326.685 45.1059 326.66 43.3277 326.442 42.2155C325.914 39.5319 324.038 37.3789 321.428 36.4616C319.644 35.8348 318.963 35.7877 311.688 35.7877H304.942V51.1235ZM332.232 37.8192V39.8507H334.425H336.618V51.1161V62.3816H334.243H331.867V64.4131V66.4446H339.116H346.365V64.4131V62.3816H343.989H341.613V51.1161V39.8507H343.806H345.999V37.8192V35.7877H339.116H332.232V37.8192ZM351.969 51.1161V66.4446H360.985H370V64.168V61.8914L363.513 61.8595L357.025 61.8276L356.994 48.8076L356.963 35.7877H354.466H351.969V51.1161ZM318.648 40.3713C320.008 40.7742 320.906 41.5049 321.414 42.6209C321.819 43.5116 321.819 45.4237 321.414 46.3145C320.827 47.605 319.658 48.3644 317.9 48.5978C317.368 48.6686 315.374 48.7093 313.41 48.6894L309.877 48.6537L309.844 44.5301C309.827 42.2621 309.841 40.3308 309.876 40.2384C309.97 39.9913 317.765 40.1095 318.648 40.3713ZM21.8077 44.5968C21.7072 44.6184 21.4194 44.6698 21.1681 44.7113L20.7112 44.7867V46.4431V48.0997H21.2715C22.084 48.0997 22.6027 48.3898 22.8338 48.9735C23.0024 49.3992 23.026 50.5039 23.026 57.9518V66.4446H25.3968H27.7678L27.8039 59.5807C27.8381 53.0763 27.8525 52.6858 28.0803 52.1275C28.6218 50.7995 29.7887 49.7094 31.1526 49.2572C31.7011 49.0753 32.1987 49.0248 33.3816 49.0306C34.7381 49.0374 35.0022 49.0754 35.7985 49.3789C36.2902 49.5663 36.7072 49.7014 36.725 49.6791C36.8703 49.4985 38.6203 46.1231 38.6203 46.0238C38.6203 45.7974 36.6407 44.9004 35.6964 44.699C34.4145 44.4257 32.4226 44.5288 31.1686 44.9337C29.6397 45.4273 28.2231 46.508 27.7606 47.5338C27.5984 47.8934 27.4119 47.9568 27.4119 47.6523C27.4119 46.3672 26.0522 45.0239 24.3906 44.6676C23.805 44.5421 22.2616 44.4998 21.8077 44.5968ZM47.7071 44.6569C46.6369 44.8273 45.2906 45.2236 44.408 45.6281C41.3254 47.0405 39.0258 49.9799 38.3325 53.3939C37.5872 57.0633 38.3287 61.0048 40.2458 63.5657C41.4379 65.1582 43.3431 66.3061 45.4285 66.6883C46.7042 66.9219 48.8971 66.8614 49.9487 66.5632C51.9238 66.0031 53.6044 64.7555 54.5222 63.1681L55.0066 62.3302L55.0876 63.153C55.2287 64.5857 55.9472 65.77 57.007 66.3164C57.6741 66.6603 58.8898 66.8457 59.8742 66.7535C61.2734 66.6225 61.1592 66.7906 61.1583 64.8666L61.1576 63.1819L60.541 63.1691C60.1329 63.1606 59.8142 63.0737 59.5977 62.9118C58.8896 62.3823 58.9104 62.6246 58.8443 54.1941L58.7833 46.4376L57.8087 46.0451C56.5446 45.5361 54.9743 45.0802 53.6375 44.8339C52.376 44.6015 48.7371 44.4929 47.7071 44.6569ZM64.2048 44.5893C64.1043 44.6156 63.7069 44.6723 63.3215 44.7151L62.621 44.7932V46.4293V48.0653L63.2589 48.1418C64.0241 48.2333 64.4586 48.5304 64.6549 49.0962C64.7617 49.4046 64.802 51.754 64.8071 57.9801L64.814 66.4446H67.2506H69.6872L69.6887 59.8269C69.6898 54.6262 69.7257 53.0739 69.8565 52.5773C70.5851 49.8125 73.1735 48.0173 75.7996 48.4556C76.2741 48.5348 76.9706 48.7466 77.3474 48.9262C78.3048 49.3826 79.32 50.4396 79.6879 51.3632L79.9819 52.1011L80.0161 59.2729L80.0504 66.4446H82.4832H84.916V59.6203C84.916 55.3973 84.8657 52.4309 84.7842 51.8381C84.1184 47.0005 80.863 44.3183 75.9615 44.5691C72.9566 44.7228 70.6118 45.8352 69.5942 47.5897L69.2638 48.1594L69.1716 47.5117C68.8925 45.5515 67.7985 44.6661 65.5537 44.584C64.9124 44.5605 64.3053 44.563 64.2048 44.5893ZM95.0697 44.7113C93.0188 45.0874 91.5505 45.8123 90.3375 47.0474C89.3245 48.0788 88.8697 48.9517 88.6704 50.2472C88.229 53.1171 89.5627 55.1238 92.5914 56.1467C93.5603 56.474 94.4676 56.6494 97.7211 57.1382C100.179 57.5074 101.553 57.9366 102.148 58.5203C102.648 59.0117 102.877 59.7362 102.758 60.4564C102.488 62.0935 101.226 63.024 98.8047 63.3697C96.0043 63.7696 93.1672 62.4613 92.8785 60.6368L92.8039 60.1655H90.4423H88.0807L88.1524 60.6887C88.5766 63.7875 90.7 65.9229 94.0695 66.6394C95.546 66.9533 97.7581 67.0852 99.1599 66.9429C103.001 66.5527 105.377 65.2325 106.541 62.84C106.972 61.9561 107.012 61.7825 107.065 60.5803C107.16 58.4194 106.75 57.2171 105.535 56.0948C104.279 54.935 102.69 54.4002 98.8047 53.8297C96.466 53.4863 94.8561 53.132 94.2897 52.836C93.0116 52.1681 92.8741 50.3397 94.0252 49.3183C95.4361 48.0665 98.3233 47.7479 100.56 48.5972C101.51 48.958 102.303 49.7442 102.412 50.4334L102.491 50.9315H104.623H106.755L106.675 50.2851C106.311 47.3441 104.059 45.3749 100.303 44.7129C99.0343 44.4894 96.2846 44.4886 95.0697 44.7113ZM139.74 44.5893C139.639 44.6156 139.242 44.6723 138.857 44.7151L138.156 44.7932V46.4293V48.0653L138.781 48.1402C139.124 48.1813 139.54 48.3041 139.705 48.4132C140.354 48.8435 140.349 48.7634 140.349 57.9454V66.4446H142.786H145.222V59.8835C145.222 54.3893 145.253 53.2048 145.409 52.5988C146.133 49.7898 148.681 48.0139 151.35 48.4576C153.681 48.8453 155.254 50.431 155.574 52.7167C155.641 53.1954 155.696 56.4388 155.697 60.0116L155.7 66.4446H158.081H160.463L160.422 59.0266C160.383 51.8148 160.374 51.5813 160.112 50.6237C159.533 48.5098 158.493 46.9213 157.055 45.9556C155.447 44.8749 153.642 44.4332 151.384 44.5676C148.456 44.7418 146.131 45.8652 145.128 47.5907L144.796 48.1613L144.76 47.7919C144.551 45.6723 143.403 44.6687 141.089 44.584C140.447 44.5605 139.84 44.563 139.74 44.5893ZM181.893 44.6738C179.385 45.0351 176.75 46.4818 175.236 48.3292C174.475 49.2585 173.455 51.2517 173.181 52.3473C172.733 54.1344 172.736 57.0156 173.187 58.9069C173.296 59.3621 173.626 60.2332 173.92 60.8426C175.939 65.0222 180.075 67.1967 185.244 66.7956C188.206 66.5656 191.085 65.1239 192.827 62.9982C193.628 62.0206 194.598 60.0777 194.948 58.7496C195.328 57.3082 195.334 54.0352 194.96 52.5201C193.882 48.1506 190.602 45.3566 185.731 44.6566C184.707 44.5094 182.98 44.5172 181.893 44.6738ZM198.462 44.5893C198.362 44.6156 197.964 44.6723 197.579 44.7151L196.878 44.7932V46.4293V48.0653L197.516 48.1418C198.206 48.2243 198.679 48.5053 198.917 48.9734C199.032 49.1998 199.068 51.2863 199.07 57.857L199.071 66.4446H201.508H203.945V59.9062C203.945 52.8507 203.964 52.598 204.613 51.304C205.33 49.874 206.861 48.7593 208.538 48.4458C210.551 48.0697 212.889 49.2244 213.811 51.0502C214.35 52.118 214.418 52.8954 214.42 58.0211C214.421 61.0789 214.472 63.0838 214.559 63.521C214.746 64.4608 215.372 65.5609 215.994 66.0434C216.836 66.6953 217.603 66.8532 219.59 66.7839C220.534 66.751 221.401 66.6831 221.519 66.6327C221.706 66.5527 221.732 66.3518 221.732 65.0155V63.4897L221.031 63.4879C220.228 63.4858 219.851 63.3263 219.49 62.8346C219.242 62.4976 219.232 62.3218 219.164 56.9864C219.1 51.9015 219.075 51.4143 218.838 50.5454C218.298 48.5648 217.284 47.0167 215.869 46.0128C214.303 44.9012 212.539 44.4504 210.219 44.5691C207.226 44.7221 204.866 45.8422 203.851 47.5907L203.52 48.1613L203.433 47.4584C203.385 47.0716 203.236 46.5374 203.101 46.2711C202.797 45.6681 202.026 44.9897 201.42 44.7911C200.966 44.6426 198.818 44.496 198.462 44.5893ZM164.593 55.6716V66.4446H166.969H169.345V55.6716V44.8986H166.969H164.593V55.6716ZM52.2146 48.6427C52.6892 48.7437 53.3471 48.9333 53.6766 49.0641L54.2756 49.3018L54.3129 52.1174C54.3816 57.2976 53.9264 59.3871 52.3532 61.1119C50.589 63.0461 46.7329 63.0832 44.7046 61.1854C43.4299 59.9927 42.8274 58.3219 42.8498 56.041C42.8887 52.0611 45.1271 49.1024 48.5816 48.4648C49.3405 48.3248 51.1337 48.4126 52.2146 48.6427ZM185.821 49.0306C186.902 49.2953 187.728 49.7837 188.597 50.6717C189.556 51.6507 190.077 52.6677 190.368 54.1269C191.255 58.575 188.26 62.6279 184.086 62.6279C181.862 62.6279 179.655 61.4038 178.55 59.5585C177.859 58.4036 177.573 57.2484 177.576 55.61C177.578 53.4968 178.063 52.11 179.24 50.8528C180.92 49.0571 183.271 48.4063 185.821 49.0306ZM319.318 52.9099C320.377 53.0836 321.098 53.4227 321.735 54.0462C323.822 56.0916 323.364 59.8478 320.844 61.3402C319.838 61.9361 319.13 62.0085 314.293 62.0104L309.816 62.0123V57.3953V52.7783L314.171 52.7793C316.636 52.7797 318.87 52.8365 319.318 52.9099ZM225.878 61.2814C225.328 61.5141 224.779 62.0203 224.509 62.5427C224.112 63.3103 224.126 64.7068 224.537 65.4542C225.567 67.3277 228.496 67.3277 229.526 65.4542C229.772 65.0069 229.828 64.7351 229.828 63.9822C229.828 62.854 229.498 62.1557 228.696 61.5868C228.225 61.2525 228.061 61.2089 227.174 61.1829C226.626 61.1671 226.043 61.2113 225.878 61.2814ZM227.98 61.6856C228.612 61.9531 229.254 62.7649 229.351 63.4186C229.491 64.3593 229.324 65.0458 228.82 65.6112C228.287 66.2078 227.782 66.4446 227.043 66.4446C226.047 66.4446 225.316 65.9644 224.887 65.0287C224.332 63.818 224.893 62.2192 226.057 61.6943C226.532 61.4799 227.483 61.4756 227.98 61.6856ZM226.118 63.9822C226.118 65.0787 226.151 65.3365 226.293 65.3365C226.408 65.3365 226.482 65.1768 226.507 64.8748C226.538 64.4851 226.592 64.4081 226.849 64.3811C227.084 64.3564 227.232 64.4619 227.496 64.8428C227.704 65.1416 227.936 65.3365 228.085 65.3365C228.311 65.3365 228.301 65.2983 227.967 64.8712L227.602 64.406L227.896 64.1419C228.262 63.8122 228.285 63.2175 227.945 62.8741C227.752 62.6784 227.539 62.6279 226.91 62.6279H226.118V63.9822ZM227.677 63.145C228.069 63.5403 227.547 64.1599 226.887 64.0835C226.578 64.0477 226.541 63.9919 226.507 63.5205L226.469 62.9972H227C227.292 62.9972 227.597 63.0637 227.677 63.145Z" fill="#00A6CA"/>
<path fill-rule="evenodd" clip-rule="evenodd" d="M137.507 115.409C130.92 120.023 125.562 123.924 125.599 124.078C125.661 124.33 132.502 134.198 132.984 134.732C133.149 134.914 156.956 118.592 157.275 118.077C157.385 117.898 149.82 106.967 149.609 107C149.539 107.011 144.093 110.795 137.507 115.409ZM166.304 119.918C163.072 120.924 161.555 124.281 163.052 127.116C163.812 128.557 164.994 129.201 168.584 130.131C170.906 130.733 171.542 131.002 172.11 131.623C172.9 132.487 172.954 132.862 172.437 133.861C171.951 134.798 170.632 135.392 169.039 135.392C167.292 135.392 166.107 134.854 165.466 133.769C164.954 132.904 164.891 132.877 163.423 132.877H161.908L162.076 133.568C162.86 136.792 166.33 138.601 170.457 137.938C173.947 137.378 175.83 135.453 175.829 132.445C175.828 129.755 174.388 128.484 170.07 127.361C168.497 126.952 166.932 126.435 166.592 126.213C165.241 125.33 165.347 123.812 166.835 122.714C167.368 122.32 167.913 122.19 169.002 122.196C170.648 122.206 171.601 122.688 172.261 123.843C172.645 124.517 172.791 124.575 174.127 124.576C175.813 124.578 175.856 124.477 174.951 122.678C173.929 120.646 171.863 119.566 169.022 119.576C168.12 119.579 166.898 119.733 166.304 119.918ZM201.847 120.025C199.464 120.846 198.268 122.451 198.268 124.829C198.268 127.728 199.565 128.933 203.82 129.986C207.282 130.843 208.197 131.4 208.306 132.721C208.441 134.339 207.048 135.392 204.772 135.391C203.135 135.391 201.847 134.787 201.168 133.704C200.696 132.949 200.568 132.896 199.213 132.886C197.58 132.875 197.496 133.009 198.154 134.579C199.254 137.206 202.558 138.542 206.37 137.901C209.715 137.338 211.48 135.473 211.482 132.499C211.484 129.634 210.219 128.464 205.996 127.424C201.992 126.438 201.039 125.75 201.439 124.133C201.763 122.826 203.389 121.968 205.17 122.163C206.634 122.324 207.447 122.805 207.976 123.825C208.342 124.531 208.457 124.578 209.845 124.578H211.324L211.056 123.522C210.258 120.388 205.756 118.678 201.847 120.025ZM190.956 122.691V124.326H189.948H188.939V125.458V126.589H189.948H190.956L190.957 130.802C190.957 134.308 191.031 135.162 191.398 135.895C191.995 137.087 193.213 137.654 195.179 137.654L196.755 137.655V136.447V135.24L195.818 135.213C194.146 135.166 193.958 134.655 194.038 130.389L194.108 126.715L195.431 126.639L196.755 126.563V125.445V124.326H195.368H193.982V122.691V121.057H192.469H190.956V122.691ZM179.471 124.707C178.143 125.379 177.471 126.113 177.201 127.185C177.037 127.838 177.054 127.847 178.372 127.847C179.483 127.847 179.83 127.731 180.424 127.164C181.027 126.588 181.358 126.482 182.547 126.482C183.774 126.482 184.034 126.572 184.557 127.178C185.209 127.935 185.404 129.6 184.842 129.616C182.407 129.686 179.534 130.139 178.636 130.596C175.166 132.362 176.251 137.197 180.251 137.795C181.656 138.006 183.319 137.515 184.208 136.629C184.613 136.225 184.992 135.895 185.051 135.895C185.11 135.895 185.158 136.291 185.158 136.775V137.655H186.67H188.183L188.172 133.191C188.16 128.29 187.982 126.871 187.252 125.871C185.907 124.029 181.971 123.44 179.471 124.707ZM231.578 124.505C231.11 124.735 230.514 125.27 230.256 125.693L229.785 126.464L229.784 125.395L229.783 124.326H228.27H226.757V130.991V137.655H228.254H229.751L229.83 133.108L229.909 128.562L230.851 127.701C231.705 126.921 231.934 126.841 233.309 126.841H234.825V125.458V124.075L233.628 124.08C232.969 124.083 232.047 124.275 231.578 124.505ZM238.399 124.361C237.099 124.735 235.432 126.561 234.968 128.121C234.092 131.063 234.67 134.482 236.322 136.13C238.826 138.628 243.662 138.42 245.894 135.719C247.071 134.295 246.957 133.883 245.388 133.883C244.333 133.883 244.015 133.991 243.63 134.479C242.702 135.656 240 135.793 238.815 134.723C238.122 134.097 237.599 133.038 237.599 132.261V131.619H242.299H247L246.854 129.881C246.536 126.098 244.434 124.066 240.876 124.103C239.975 124.112 238.86 124.228 238.399 124.361ZM212.93 129.419C213.016 133.961 213.083 134.62 213.548 135.517C214.483 137.322 216.296 138.133 218.618 137.786C219.53 137.649 220.032 137.381 220.789 136.626C221.331 136.085 221.818 135.643 221.871 135.643C221.924 135.643 221.967 136.096 221.967 136.649V137.655H223.354H224.74V130.991V124.326H223.228H221.715V128.74C221.715 133.676 221.551 134.332 220.17 134.902C218.331 135.662 216.626 135.039 216.182 133.445C216.037 132.925 215.918 130.661 215.918 128.413L215.916 124.326H214.374H212.833L212.93 129.419ZM242.918 127.254C243.314 127.649 243.711 128.341 243.801 128.79L243.965 129.607H240.782C237.275 129.607 237.212 129.573 237.989 128.075C238.941 126.238 241.478 125.815 242.918 127.254ZM185.158 132.386C185.158 134.185 183.818 135.392 181.822 135.392C180.364 135.392 179.611 134.843 179.611 133.782C179.611 132.299 180.672 131.822 184.338 131.656C185.091 131.622 185.158 131.681 185.158 132.386Z" fill="#116366"/>
<path fill-rule="evenodd" clip-rule="evenodd" d="M133.976 135.484C127.389 140.096 122 144.005 122 144.172C122 144.563 129.243 154.985 129.526 155C129.854 155.018 153.641 138.341 153.641 138.093C153.641 137.883 147.233 128.636 146.374 127.606C145.96 127.11 145.705 127.272 133.976 135.484Z" fill="#262261"/>
<line x1="4.37114e-08" y1="86.5" x2="370" y2="86.5" stroke="#00A6CA"/>
</svg>
