<svg width="371" height="67" viewBox="0 0 371 67" fill="none" xmlns="http://www.w3.org/2000/svg">
<path fill-rule="evenodd" clip-rule="evenodd" d="M229.891 0.0877609C223.146 0.801119 217.054 4.53474 213.424 10.1787C212.143 12.1713 211.65 13.4609 211.54 15.1035C211.389 17.3806 212.288 19.1207 214.093 20.0426C215.288 20.6533 216.004 20.7859 218.485 20.8569C219.743 20.893 220.772 20.9484 220.772 20.9801C220.772 21.0119 220.493 21.9221 220.152 23.0029C219.237 25.9032 219.213 27.3638 220.055 29.0456C220.556 30.0476 221.128 30.6397 222.084 31.1452C223.653 31.9745 225.726 32.0733 227.894 31.4216C228.878 31.126 228.872 31.1404 228.398 30.1791C228.165 29.7087 227.899 28.9914 227.805 28.5852C227.687 28.0741 227.582 27.8595 227.466 27.8888C225.244 28.4479 224.322 28.3765 223.564 27.5869C223.239 27.2484 223.161 27.0564 223.114 26.4825C223.064 25.878 223.157 25.4706 223.834 23.339L224.612 20.8901H226.817H229.021L229.553 19.1972C229.846 18.2662 230.109 17.4351 230.137 17.3504C230.178 17.231 229.696 17.1965 227.989 17.1965H225.789L226.211 15.9346C226.443 15.2404 226.874 13.9108 227.167 12.9797L227.7 11.2868H225.786H223.872L222.926 14.25L221.98 17.2134L219.262 17.1741L216.545 17.135L216.041 16.7982C215.07 16.1487 215.062 15.0339 216.016 13.0261C216.637 11.719 217.722 10.3167 219.275 8.81267C225.544 2.74174 235.222 1.92361 242.517 6.84792C248.176 10.6676 251.421 17.479 250.794 24.2263C250.37 28.8017 248.523 32.7888 245.354 35.9724C243.804 37.5295 242.534 38.4806 240.751 39.4196C238.156 40.7867 235.705 41.4438 232.826 41.5445C229.987 41.6439 227.747 41.2583 225.103 40.2147C219.607 38.046 215.093 32.716 213.812 26.8842C213.674 26.256 213.624 26.1758 213.402 26.2289C213.262 26.2622 212.538 26.4107 211.791 26.559C211.044 26.7072 210.369 26.8689 210.29 26.9182C210.02 27.0862 210.749 29.7038 211.627 31.7247C213.934 37.0364 218.423 41.4426 223.708 43.583C234.615 48.0012 247.037 43.1782 252.188 32.525C256.027 24.5872 254.903 15.0517 249.315 8.14955C246.644 4.84906 242.486 2.0828 238.397 0.884595C235.932 0.162495 232.354 -0.172761 229.891 0.0877609ZM231.144 21.2297C229.924 25.0861 229.866 25.3161 229.822 26.5313C229.769 27.976 229.935 28.6833 230.562 29.6772C232.212 32.2946 236.418 32.5531 239.617 30.2336L240.143 29.8523L240.604 30.3672C241.17 30.9993 242.01 31.4423 243.077 31.6705C244.076 31.8844 245.615 31.8957 246.011 31.6921C246.302 31.5429 247.009 30.3575 247.46 29.2623L247.689 28.7083L246.275 28.6963C244.659 28.6828 244 28.4969 243.365 27.8764C243.146 27.6615 242.912 27.2812 242.845 27.0313C242.707 26.5154 242.645 26.7422 244.506 20.9428C245.138 18.9743 245.654 17.3259 245.654 17.28C245.654 17.2341 244.808 17.1965 243.774 17.1965H241.893L241.524 18.3354C241.322 18.9618 240.74 20.7857 240.231 22.3886C239.202 25.6319 238.829 26.3228 237.634 27.2083C236.102 28.344 234.585 28.5285 233.777 27.6775C233.138 27.004 233.17 26.8088 234.739 21.9447C235.523 19.5113 236.193 17.4476 236.227 17.3584C236.276 17.2288 235.903 17.1968 234.354 17.1975L232.42 17.1985L231.144 21.2297ZM0 37.4498V39.7275H4.51301H9.02602V53.0861V66.4446H11.5265H14.0269V53.0861V39.7275H18.5399H23.053V37.4498V35.1721H11.5265H0V37.4498ZM111.023 46.653L111.059 58.134L111.4 59.2421C112.411 62.5225 114.635 64.8059 118.003 66.0208C119.638 66.6106 120.975 66.8221 123.071 66.8224C128.987 66.8237 133.196 64.046 134.683 59.1595L134.957 58.2571L134.995 46.7146L135.033 35.1721H132.528H130.024L130.021 45.8528C130.02 54.6546 129.989 56.6801 129.844 57.367C129.349 59.7267 127.525 61.4704 124.938 62.0589C121.654 62.8054 118.136 61.4733 116.822 58.9866C116.103 57.6251 116.119 57.9033 116.119 46.0424V35.1721H113.553H110.987L111.023 46.653ZM166.061 35.5753C164.762 36.1025 164.298 36.8059 164.298 38.2501C164.298 38.9109 164.365 39.2978 164.546 39.675C165.19 41.0166 167.003 41.4822 168.548 40.7025C169.603 40.1708 169.967 39.54 169.965 38.2511C169.964 37.0625 169.629 36.3966 168.762 35.8558C168.264 35.545 168.019 35.4779 167.298 35.4537C166.822 35.4377 166.265 35.4924 166.061 35.5753ZM266.024 35.5039C264.114 35.7102 262.034 36.3197 260.388 37.1543C257.569 38.5845 255.305 40.8911 253.945 43.7208C251.867 48.0411 251.82 53.9659 253.83 58.2947C255.506 61.9037 258.762 64.7579 262.566 65.9503C264.146 66.4456 264.992 66.5789 267.014 66.6513C271.24 66.8028 274.359 65.8462 277.281 63.5019C279.275 61.9025 280.923 59.138 281.564 56.318L281.641 55.9794H279.195C276.975 55.9794 276.743 55.9992 276.678 56.1949C276.638 56.3133 276.408 56.8258 276.167 57.3337C275.604 58.518 273.915 60.2808 272.762 60.8872C270.322 62.1712 267.367 62.4752 264.767 61.7098C261.836 60.8473 259.788 59.0511 258.451 56.1702C257.683 54.5178 257.434 53.2837 257.43 51.1161C257.424 47.7121 258.298 45.2607 260.27 43.15C261.975 41.3258 263.897 40.3969 266.609 40.0859C268.62 39.8552 271.267 40.3839 272.974 41.3569C273.995 41.9389 275.64 43.6718 276.191 44.7447L276.649 45.6373H279.021C280.908 45.6373 281.392 45.6041 281.392 45.4742C281.392 45.1617 280.814 43.5994 280.359 42.6824C279.064 40.0753 276.776 37.9318 273.984 36.7102C271.654 35.6909 268.589 35.2265 266.024 35.5039ZM285.418 37.8192V39.8507H287.675H289.932L289.901 51.0854L289.87 62.3201L287.461 62.3534L285.052 62.3868V64.4157V66.4446H292.37H299.688V64.4157V62.3868L297.279 62.3534L294.87 62.3201L294.839 51.0854L294.808 39.8507H297.065H299.322V37.8192V35.7877H292.37H285.418V37.8192ZM305.299 51.1235V66.4595L313.075 66.4155C320.631 66.3728 320.878 66.364 321.827 66.1015C326.035 64.9368 328.349 61.8898 328.351 57.5073C328.353 55.0471 327.802 53.5667 326.34 52.1011C325.566 51.3253 324.173 50.439 323.728 50.439C323.447 50.439 323.624 50.2398 324.221 49.8849C325.476 49.1378 326.558 47.5677 326.876 46.0314C327.067 45.1059 327.043 43.3277 326.824 42.2155C326.295 39.5319 324.417 37.3789 321.804 36.4616C320.018 35.8348 319.336 35.7877 312.053 35.7877H305.299V51.1235ZM332.621 37.8192V39.8507H334.817H337.012V51.1161V62.3816H334.634H332.255V64.4131V66.4446H339.513H346.77V64.4131V62.3816H344.392H342.013V51.1161V39.8507H344.209H346.404V37.8192V35.7877H339.513H332.621V37.8192ZM352.381 51.1161V66.4446H361.407H370.433V64.168V61.8914L363.938 61.8595L357.443 61.8276L357.412 48.8076L357.381 35.7877H354.881H352.381V51.1161ZM319.021 40.3713C320.382 40.7742 321.282 41.5049 321.79 42.6209C322.196 43.5116 322.196 45.4237 321.79 46.3145C321.202 47.605 320.032 48.3644 318.272 48.5978C317.739 48.6686 315.743 48.7093 313.776 48.6894L310.239 48.6537L310.207 44.5301C310.189 42.2621 310.203 40.3308 310.239 40.2384C310.333 39.9912 318.137 40.1094 319.021 40.3713ZM21.8332 44.5968C21.7326 44.6184 21.4445 44.6698 21.1929 44.7113L20.7355 44.7867V46.4431V48.0997H21.2964C22.1099 48.0997 22.6291 48.3898 22.8605 48.9735C23.0293 49.3992 23.053 50.5039 23.053 57.9518V66.4446H25.4266H27.8003L27.8364 59.5807C27.8707 53.0763 27.885 52.6858 28.1131 52.1275C28.6553 50.7995 29.8236 49.7094 31.1891 49.2572C31.7382 49.0753 32.2363 49.0248 33.4207 49.0306C34.7787 49.0374 35.0432 49.0754 35.8404 49.3789C36.3327 49.5663 36.7502 49.7014 36.768 49.6791C36.9134 49.4985 38.6655 46.1231 38.6655 46.0238C38.6655 45.7974 36.6836 44.9004 35.7382 44.699C34.4548 44.4257 32.4605 44.5288 31.205 44.9337C29.6744 45.4273 28.2561 46.508 27.7931 47.5338C27.6307 47.8933 27.444 47.9568 27.444 47.6523C27.444 46.3672 26.0827 45.0239 24.4192 44.6676C23.8329 44.5421 22.2877 44.4998 21.8332 44.5968ZM47.7629 44.6569C46.6915 44.8273 45.3436 45.2236 44.46 45.6281C41.3737 47.0405 39.0715 49.9799 38.3773 53.3939C37.6312 57.0633 38.3735 61.0048 40.2929 63.5657C41.4864 65.1582 43.3938 66.3061 45.4816 66.6883C46.7588 66.9219 48.9544 66.8614 50.0071 66.5632C51.9845 66.0031 53.6672 64.7555 54.586 63.1681L55.0709 62.3302L55.1521 63.153C55.2933 64.5857 56.0127 65.77 57.0737 66.3164C57.7416 66.6603 58.9587 66.8457 59.9443 66.7535C61.3451 66.6225 61.2307 66.7906 61.2299 64.8666L61.2291 63.1819L60.6118 63.1691C60.2032 63.1606 59.8841 63.0737 59.6674 62.9118C58.9585 62.3823 58.9793 62.6246 58.9131 54.1941L58.8521 46.4376L57.8763 46.0451C56.6107 45.5361 55.0386 45.0802 53.7002 44.8339C52.4373 44.6015 48.7941 44.4929 47.7629 44.6569ZM64.2799 44.5893C64.1793 44.6156 63.7814 44.6723 63.3956 44.7151L62.6943 44.7932V46.4293V48.0653L63.3329 48.1418C64.0991 48.2333 64.534 48.5304 64.7305 49.0962C64.8375 49.4046 64.8778 51.754 64.883 57.9801L64.8898 66.4446H67.3293H69.7687L69.7702 59.8269C69.7713 54.6262 69.8073 53.0739 69.9383 52.5773C70.6677 49.8125 73.2591 48.0173 75.8883 48.4556C76.3633 48.5348 77.0607 48.7466 77.4379 48.9262C78.3964 49.3826 79.4128 50.4396 79.7812 51.3632L80.0755 52.1011L80.1097 59.2729L80.144 66.4446H82.5797H85.0154V59.6203C85.0154 55.3973 84.965 52.4309 84.8834 51.8381C84.2168 47.0005 80.9576 44.3183 76.0504 44.5691C73.042 44.7228 70.6944 45.8352 69.6757 47.5897L69.3449 48.1594L69.2525 47.5117C68.9731 45.5515 67.8778 44.6661 65.6304 44.584C64.9884 44.5605 64.3806 44.563 64.2799 44.5893ZM95.1809 44.7113C93.1276 45.0874 91.6576 45.8123 90.4432 47.0474C89.429 48.0788 88.9737 48.9517 88.7741 50.2472C88.3322 53.1171 89.6675 55.1238 92.6997 56.1467C93.6698 56.474 94.5781 56.6494 97.8354 57.1382C100.296 57.5074 101.672 57.9366 102.267 58.5203C102.768 59.0117 102.997 59.7362 102.878 60.4564C102.608 62.0935 101.344 63.024 98.9203 63.3697C96.1167 63.7696 93.2762 62.4613 92.9872 60.6368L92.9124 60.1655H90.5481H88.1838L88.2555 60.6887C88.6802 63.7875 90.8061 65.9229 94.1796 66.6394C95.6578 66.9533 97.8725 67.0852 99.2759 66.9429C103.122 66.5527 105.5 65.2325 106.666 62.84C107.097 61.9561 107.137 61.7825 107.19 60.5803C107.286 58.4194 106.875 57.2171 105.658 56.0948C104.401 54.935 102.811 54.4003 98.9203 53.8297C96.5788 53.4863 94.9671 53.132 94.4 52.836C93.1204 52.1681 92.9828 50.3397 94.1352 49.3183C95.5478 48.0665 98.4383 47.7479 100.678 48.5972C101.629 48.958 102.423 49.7442 102.532 50.4334L102.611 50.9315H104.745H106.88L106.8 50.2851C106.435 47.3441 104.181 45.3749 100.42 44.7129C99.1501 44.4894 96.3972 44.4886 95.1809 44.7113ZM139.903 44.5893C139.803 44.6156 139.405 44.6723 139.019 44.7151L138.318 44.7932V46.4293V48.0653L138.943 48.1402C139.287 48.1813 139.703 48.3041 139.868 48.4132C140.519 48.8435 140.513 48.7634 140.513 57.9454V66.4446H142.953H145.392V59.8835C145.392 54.3893 145.423 53.2048 145.579 52.5988C146.304 49.7898 148.855 48.0139 151.527 48.4576C153.861 48.8453 155.436 50.431 155.756 52.7167C155.823 53.1954 155.878 56.4388 155.879 60.0116L155.882 66.4446H158.266H160.651L160.61 59.0266C160.57 51.8148 160.562 51.5813 160.299 50.6237C159.72 48.5098 158.678 46.9213 157.239 45.9556C155.629 44.8749 153.822 44.4332 151.561 44.5676C148.63 44.7418 146.302 45.8652 145.298 47.5907L144.965 48.1613L144.929 47.7919C144.721 45.6723 143.571 44.6687 141.254 44.584C140.612 44.5605 140.004 44.563 139.903 44.5893ZM182.106 44.6738C179.595 45.0351 176.957 46.4818 175.442 48.3292C174.679 49.2585 173.658 51.2517 173.383 52.3473C172.935 54.1344 172.938 57.0156 173.39 58.9069C173.499 59.3621 173.829 60.2332 174.123 60.8426C176.145 65.0222 180.286 67.1967 185.46 66.7956C188.426 66.5656 191.309 65.1239 193.053 62.9982C193.855 62.0206 194.826 60.0777 195.176 58.7496C195.557 57.3082 195.563 54.0352 195.188 52.5201C194.108 48.1506 190.825 45.3566 185.948 44.6566C184.923 44.5094 183.194 44.5172 182.106 44.6738ZM198.695 44.5893C198.594 44.6156 198.196 44.6723 197.81 44.7151L197.109 44.7932V46.4293V48.0653L197.748 48.1418C198.438 48.2243 198.912 48.5053 199.15 48.9734C199.265 49.1998 199.301 51.2863 199.303 57.857L199.304 66.4446H201.744H204.183V59.9062C204.183 52.8507 204.203 52.598 204.853 51.304C205.571 49.874 207.103 48.7593 208.782 48.4458C210.798 48.0697 213.138 49.2244 214.061 51.0502C214.601 52.118 214.669 52.8954 214.671 58.0211C214.672 61.0789 214.723 63.0838 214.81 63.521C214.997 64.4608 215.624 65.5608 216.247 66.0434C217.089 66.6953 217.857 66.8532 219.847 66.7839C220.792 66.751 221.661 66.6831 221.778 66.6327C221.965 66.5527 221.991 66.3518 221.991 65.0155V63.4897L221.29 63.4879C220.485 63.4858 220.109 63.3263 219.747 62.8346C219.499 62.4976 219.489 62.3218 219.421 56.9864C219.356 51.9015 219.331 51.4143 219.094 50.5454C218.553 48.5648 217.538 47.0167 216.122 46.0128C214.554 44.9012 212.787 44.4504 210.465 44.5691C207.469 44.7221 205.106 45.8422 204.089 47.5907L203.758 48.1613L203.671 47.4584C203.623 47.0716 203.473 46.5374 203.339 46.2711C203.034 45.6681 202.262 44.9897 201.655 44.7911C201.202 44.6426 199.051 44.496 198.695 44.5893ZM164.786 55.6716V66.4446H167.164H169.543V55.6716V44.8986H167.164H164.786V55.6716ZM52.2757 48.6427C52.7509 48.7437 53.4095 48.9333 53.7394 49.0641L54.3391 49.3018L54.3764 52.1174C54.4452 57.2976 53.9895 59.3871 52.4145 61.1119C50.6482 63.0461 46.7876 63.0832 44.7569 61.1854C43.4807 59.9927 42.8775 58.3219 42.9 56.041C42.9389 52.0611 45.1799 49.1024 48.6384 48.4648C49.3982 48.3248 51.1935 48.4125 52.2757 48.6427ZM186.038 49.0306C187.12 49.2953 187.948 49.7837 188.818 50.6717C189.778 51.6507 190.299 52.6677 190.591 54.1269C191.479 58.575 188.48 62.6279 184.302 62.6279C182.075 62.6279 179.865 61.4038 178.759 59.5585C178.067 58.4036 177.781 57.2484 177.783 55.61C177.786 53.4968 178.272 52.11 179.45 50.8528C181.132 49.0571 183.485 48.4063 186.038 49.0306ZM319.691 52.9099C320.752 53.0836 321.474 53.4227 322.111 54.0462C324.201 56.0916 323.742 59.8478 321.219 61.3402C320.212 61.9361 319.504 62.0085 314.661 62.0104L310.178 62.0123V57.3953V52.7783L314.539 52.7793C317.006 52.7797 319.243 52.8365 319.691 52.9099ZM226.142 61.2814C225.592 61.5141 225.042 62.0203 224.772 62.5427C224.375 63.3103 224.388 64.7068 224.8 65.4542C225.831 67.3277 228.763 67.3277 229.795 65.4542C230.041 65.0069 230.097 64.7351 230.097 63.9822C230.097 62.854 229.767 62.1557 228.964 61.5868C228.492 61.2525 228.328 61.2089 227.439 61.1829C226.892 61.1671 226.308 61.2113 226.142 61.2814ZM228.246 61.6856C228.879 61.9531 229.523 62.7649 229.62 63.4186C229.759 64.3593 229.593 65.0458 229.087 65.6112C228.554 66.2078 228.049 66.4446 227.309 66.4446C226.311 66.4446 225.579 65.9644 225.15 65.0287C224.595 63.818 225.156 62.2192 226.321 61.6943C226.797 61.4799 227.75 61.4756 228.246 61.6856ZM226.382 63.9822C226.382 65.0787 226.416 65.3365 226.558 65.3365C226.673 65.3365 226.747 65.1768 226.772 64.8748C226.803 64.4851 226.857 64.4081 227.114 64.3811C227.35 64.3564 227.498 64.4619 227.763 64.8428C227.97 65.1416 228.203 65.3365 228.352 65.3365C228.578 65.3365 228.569 65.2984 228.233 64.8712L227.868 64.406L228.162 64.1419C228.529 63.8122 228.552 63.2175 228.212 62.8741C228.018 62.6784 227.806 62.6279 227.175 62.6279H226.382V63.9822ZM227.944 63.145C228.335 63.5403 227.813 64.1599 227.153 64.0835C226.843 64.0477 226.806 63.9919 226.772 63.5205L226.734 62.9972H227.266C227.558 62.9972 227.863 63.0637 227.944 63.145Z" fill="#00A6CA"/>
</svg>
