<svg width="144" height="55" viewBox="0 0 144 55" fill="none" xmlns="http://www.w3.org/2000/svg">
<path fill-rule="evenodd" clip-rule="evenodd" d="M17.8635 9.6352C10.2757 14.922 4.10295 19.3919 4.14622 19.5683C4.21709 19.8564 12.0977 31.1643 12.6533 31.7752C12.8438 31.9847 40.2686 13.2818 40.6366 12.6917C40.7638 12.4871 32.0482 -0.0376634 31.8048 8.51566e-05C31.7249 0.0124759 25.4514 4.34838 17.8635 9.6352ZM51.0385 14.801C47.315 15.9545 45.5677 19.8005 47.2912 23.0489C48.1675 24.7001 49.5291 25.4383 53.6644 26.5039C56.3397 27.1932 57.0722 27.5015 57.7268 28.2136C58.6362 29.2028 58.6992 29.633 58.1027 30.7779C57.5436 31.8507 56.0242 32.5313 54.1884 32.5313C52.1765 32.5313 50.8114 31.9149 50.0725 30.6724C49.4832 29.6814 49.4106 29.6497 47.719 29.6497H45.9735L46.1675 30.4422C47.0708 34.1358 51.0684 36.209 55.8218 35.4495C59.8433 34.8069 62.0114 32.6016 62.0103 29.1547C62.0094 26.0728 60.3507 24.6162 55.3766 23.3296C53.5648 22.8607 51.7617 22.2689 51.3699 22.0141C49.8137 21.0024 49.9351 19.2631 51.6496 18.0053C52.2642 17.5543 52.8918 17.4054 54.1457 17.4123C56.042 17.4229 57.1407 17.9753 57.8999 19.2988C58.3426 20.0714 58.511 20.1371 60.0504 20.1388C61.992 20.1408 62.0422 20.0256 60.9992 17.9638C59.8215 15.6361 57.4419 14.3979 54.1689 14.4094C53.1306 14.4128 51.7219 14.5892 51.0385 14.801ZM91.9834 14.924C89.2381 15.8649 87.8603 17.7045 87.8603 20.4287C87.8603 23.7506 89.3543 25.1308 94.2567 26.3377C98.2445 27.3191 99.2982 27.958 99.4245 29.4711C99.5796 31.3256 97.9749 32.5316 95.3537 32.5307C93.4678 32.5304 91.9831 31.8389 91.2018 30.5975C90.6578 29.7327 90.51 29.6713 88.9494 29.661C87.0676 29.6483 86.9715 29.8013 87.729 31.6C88.9968 34.6104 92.803 36.141 97.1936 35.4062C101.048 34.7613 103.081 32.6247 103.083 29.2175C103.085 25.9339 101.628 24.5934 96.7632 23.4019C92.1504 22.2726 91.0522 21.4836 91.5134 19.6308C91.8864 18.1335 93.7597 17.15 95.8114 17.3739C97.4983 17.5581 98.4344 18.1096 99.0438 19.2787C99.4652 20.0872 99.5985 20.1405 101.197 20.1405H102.901L102.592 18.9309C101.673 15.3396 96.487 13.381 91.9834 14.924ZM79.4374 17.9794V19.8524H78.2756H77.1139V21.1491V22.4458H78.2756H79.4374L79.438 27.2724C79.4383 31.2902 79.5234 32.2679 79.9463 33.1076C80.6343 34.4741 82.0372 35.1239 84.3023 35.1241L86.1176 35.1247V33.741V32.3573L85.0383 32.327C83.1121 32.2728 82.8948 31.687 82.9878 26.799L83.0679 22.5899L84.5928 22.5029L86.1176 22.4155V21.1341V19.8524H84.5202H82.9227V17.9794V16.1063H81.1801H79.4374V17.9794ZM66.2066 20.2884C64.6768 21.0592 63.9025 21.9003 63.5917 23.1284C63.4029 23.8759 63.4221 23.8866 64.9406 23.8866C66.2202 23.8866 66.6202 23.7543 67.3039 23.1045C67.9983 22.4444 68.38 22.3222 69.75 22.3222C71.1633 22.3222 71.4627 22.4253 72.0651 23.1204C72.8171 23.9877 73.0416 25.8956 72.3942 25.9141C69.5888 25.9933 66.2786 26.5134 65.2441 27.037C61.247 29.0599 62.4968 34.6 67.1049 35.2855C68.7239 35.5264 70.6396 34.9645 71.6637 33.9487C72.1299 33.4863 72.5667 33.1076 72.6344 33.1076C72.702 33.1076 72.7572 33.5615 72.7572 34.1162V35.1247H74.4999H76.2426L76.2298 30.0099C76.2161 24.394 76.0105 22.7682 75.1697 21.6222C73.621 19.5115 69.0866 18.8369 66.2066 20.2884ZM126.234 20.057C125.694 20.3206 125.008 20.9338 124.71 21.4191L124.168 22.3017L124.167 21.0771L124.166 19.8524H122.423H120.68V27.4886V35.1247H122.405H124.129L124.22 29.9151L124.311 24.7055L125.396 23.7197C126.379 22.8262 126.644 22.734 128.227 22.734H129.974V21.1491V19.5642L128.595 19.5709C127.836 19.5743 126.774 19.7933 126.234 20.057ZM134.092 19.8922C132.594 20.3204 130.674 22.4129 130.139 24.2004C129.13 27.5718 129.795 31.489 131.698 33.377C134.583 36.2393 140.154 36.0016 142.726 32.9062C144.081 31.2749 143.95 30.8024 142.142 30.8024C140.928 30.8024 140.561 30.926 140.118 31.4856C139.048 32.8339 135.936 32.9909 134.571 31.7651C133.772 31.0484 133.169 29.8341 133.169 28.9437V28.2089H138.585H144L143.832 26.2175C143.465 21.8825 141.044 19.5539 136.945 19.5965C135.907 19.6075 134.623 19.7403 134.092 19.8922ZM104.751 25.6876C104.85 30.8925 104.927 31.6472 105.463 32.6754C106.54 34.7435 108.628 35.6725 111.304 35.2746C112.355 35.1181 112.932 34.8112 113.805 33.9453C114.429 33.326 114.99 32.8195 115.051 32.8195C115.112 32.8195 115.162 33.3381 115.162 33.9721V35.1247H116.759H118.357V27.4886V19.8524H116.614H114.871V24.9095C114.871 30.5658 114.682 31.3167 113.092 31.97C110.973 32.8408 109.009 32.127 108.498 30.3007C108.331 29.7051 108.194 27.1105 108.193 24.5349L108.191 19.8524H106.415H104.639L104.751 25.6876ZM139.297 23.2068C139.753 23.6598 140.211 24.4522 140.315 24.9672L140.503 25.9037H136.836C132.796 25.9037 132.724 25.8645 133.619 24.1477C134.716 22.0427 137.638 21.5583 139.297 23.2068ZM72.7572 29.0878C72.7572 31.1484 71.2144 32.5313 68.9153 32.5313C67.2353 32.5313 66.3675 31.9028 66.3675 30.6865C66.3675 28.9873 67.5894 28.4409 71.8133 28.2513C72.6811 28.2124 72.7572 28.2798 72.7572 29.0878Z" fill="#116366"/>
<path fill-rule="evenodd" clip-rule="evenodd" d="M13.796 32.6368C6.20822 37.921 0 42.4004 0 42.5912C0 43.0395 8.34384 54.981 8.66943 54.9986C9.04729 55.0191 36.4506 35.9097 36.4506 35.6258C36.4506 35.3852 29.069 24.7902 28.0791 23.6102C27.6022 23.0417 27.3077 23.2276 13.796 32.6368Z" fill="#262261"/>
</svg>
