<svg width="72" height="70" viewBox="0 0 72 70" fill="none" xmlns="http://www.w3.org/2000/svg">
<path fill-rule="evenodd" clip-rule="evenodd" d="M7.83059 33.6465C5.08272 35.5567 4 37.4458 4 39.0688C4 40.2834 4.59231 41.63 6.06351 43.0553C7.54071 44.4864 9.78283 45.8674 12.7167 47.0695C18.5747 49.4699 26.8056 51.0008 36 51.0008C45.1944 51.0008 53.4253 49.4699 59.2833 47.0695C62.2172 45.8674 64.4593 44.4864 65.9365 43.0553C67.4077 41.63 68 40.2834 68 39.0688C68 37.4458 66.9173 35.5567 64.1694 33.6465C61.4645 31.7662 57.4742 30.1167 52.5387 28.9468L53.4613 25.0547C58.6885 26.2937 63.1981 28.0998 66.4526 30.3621C69.664 32.5946 72 35.5351 72 39.0688C72 41.7015 70.6895 44.0199 68.7197 45.9282C66.7559 47.8307 64.0189 49.4519 60.8 50.7709C54.3524 53.4128 45.5833 55.0008 36 55.0008C26.4167 55.0008 17.6476 53.4128 11.2 50.7709C7.98112 49.4519 5.24405 47.8307 3.28027 45.9282C1.31048 44.0199 0 41.7015 0 39.0688C0 35.5351 2.33597 32.5946 5.54745 30.3621C8.80187 28.0998 13.3115 26.2937 18.5387 25.0547L19.4613 28.9468C14.5258 30.1167 10.5355 31.7662 7.83059 33.6465Z" fill="#006685"/>
<path fill-rule="evenodd" clip-rule="evenodd" d="M4 55.0587V39H0V56.0425L0.210204 56.464C1.86037 59.773 6.21042 63.1234 12.1809 65.6275C18.2636 68.1787 26.3646 70 36 70C45.6211 70 53.5825 68.2909 59.5981 65.8508C65.5396 63.4407 69.8037 60.2228 71.7162 57.027L72 56.5527V39H68V55.4091C66.5509 57.4737 63.2893 60.0369 58.0945 62.1441C52.6015 64.3723 45.1565 66 36 66C26.8577 66 19.2868 64.2703 13.728 61.9388C8.40422 59.7059 5.20426 57.0453 4 55.0587Z" fill="#006685"/>
<path d="M25 22H27C30.3137 22 33 24.6863 33 28V30H31C27.6863 30 25 27.3137 25 24V22Z" fill="#006685"/>
<path d="M25 8H27C30.3137 8 33 10.6863 33 14V16H31C27.6863 16 25 13.3137 25 10V8Z" fill="#006685"/>
<path d="M47 28H45C41.6863 28 39 30.6863 39 34V36H41C44.3137 36 47 33.3137 47 30V28Z" fill="#006685"/>
<path d="M47 14H45C41.6863 14 39 16.6863 39 20V22H41C44.3137 22 47 19.3137 47 16V14Z" fill="#006685"/>
<path d="M47 0H45C41.6863 0 39 2.68629 39 6V8H41C44.3137 8 47 5.31371 47 2V0Z" fill="#006685"/>
<path d="M12 56C12 57.1046 11.1046 58 10 58C8.89543 58 8 57.1046 8 56C8 54.8954 8.89543 54 10 54C11.1046 54 12 54.8954 12 56Z" fill="#006685"/>
<path d="M28 62C28 63.1046 27.1046 64 26 64C24.8954 64 24 63.1046 24 62C24 60.8954 24.8954 60 26 60C27.1046 60 28 60.8954 28 62Z" fill="#006685"/>
<path d="M45 58C45 59.1046 44.1046 60 43 60C41.8954 60 41 59.1046 41 58C41 56.8954 41.8954 56 43 56C44.1046 56 45 56.8954 45 58Z" fill="#006685"/>
<path d="M36 58C36 59.1046 35.1046 60 34 60C32.8954 60 32 59.1046 32 58C32 56.8954 32.8954 56 34 56C35.1046 56 36 56.8954 36 58Z" fill="#006685"/>
<path d="M55 59C55 60.1046 54.1046 61 53 61C51.8954 61 51 60.1046 51 59C51 57.8954 51.8954 57 53 57C54.1046 57 55 57.8954 55 59Z" fill="#006685"/>
<path d="M62 54C62 55.1046 61.1046 56 60 56C58.8954 56 58 55.1046 58 54C58 52.8954 58.8954 52 60 52C61.1046 52 62 52.8954 62 54Z" fill="#006685"/>
<path d="M19 61C19 61.5523 18.5523 62 18 62C17.4477 62 17 61.5523 17 61C17 60.4477 17.4477 60 18 60C18.5523 60 19 60.4477 19 61Z" fill="#006685"/>
<path d="M26 57C26 57.5523 25.5523 58 25 58C24.4477 58 24 57.5523 24 57C24 56.4477 24.4477 56 25 56C25.5523 56 26 56.4477 26 57Z" fill="#006685"/>
<path d="M17 56C17 56.5523 16.5523 57 16 57C15.4477 57 15 56.5523 15 56C15 55.4477 15.4477 55 16 55C16.5523 55 17 55.4477 17 56Z" fill="#006685"/>
<path d="M7 51C7 51.5523 6.55228 52 6 52C5.44772 52 5 51.5523 5 51C5 50.4477 5.44772 50 6 50C6.55228 50 7 50.4477 7 51Z" fill="#006685"/>
<path d="M41 62C41 62.5523 40.5523 63 40 63C39.4477 63 39 62.5523 39 62C39 61.4477 39.4477 61 40 61C40.5523 61 41 61.4477 41 62Z" fill="#006685"/>
<path d="M52 55C52 55.5523 51.5523 56 51 56C50.4477 56 50 55.5523 50 55C50 54.4477 50.4477 54 51 54C51.5523 54 52 54.4477 52 55Z" fill="#006685"/>
<path fill-rule="evenodd" clip-rule="evenodd" d="M34 42L34 1L38 1L38 42L34 42Z" fill="#006685"/>
<path fill-rule="evenodd" clip-rule="evenodd" d="M28.4116 46.4166C28.4127 46.4154 28.4139 46.4142 26.9997 45C25.5855 43.5858 25.5867 43.5846 25.588 43.5833L25.5905 43.5809L25.5956 43.5758L25.6065 43.5651L25.6308 43.5418C25.6481 43.5254 25.6677 43.5073 25.6897 43.4876C25.7335 43.4483 25.7867 43.4029 25.85 43.3523C25.9765 43.2511 26.1425 43.1298 26.3536 42.9965C26.7765 42.7295 27.3748 42.4173 28.1912 42.1204C29.8236 41.5268 32.3111 41 35.9997 41C39.6883 41 42.1759 41.5268 43.8082 42.1204C44.6247 42.4173 45.223 42.7295 45.6458 42.9965C45.8569 43.1298 46.023 43.2511 46.1495 43.3523C46.2127 43.4029 46.2659 43.4483 46.3098 43.4876C46.3317 43.5073 46.3513 43.5254 46.3687 43.5418L46.393 43.5651L46.4039 43.5758L46.409 43.5809L46.4115 43.5833C46.4127 43.5846 46.4139 43.5858 44.9997 45C43.5855 46.4142 43.5867 46.4154 43.5879 46.4166L43.5903 46.419L43.5949 46.4235L43.6035 46.432L43.6189 46.4468C43.6282 46.4556 43.6357 46.4624 43.6413 46.4674C43.6525 46.4774 43.6559 46.4799 43.6507 46.4758C43.6406 46.4677 43.5957 46.4327 43.5099 46.3785C43.339 46.2705 42.9998 46.0827 42.4412 45.8796C41.3236 45.4732 39.3111 45 35.9997 45C32.6883 45 30.6759 45.4732 29.5582 45.8796C28.9997 46.0827 28.6605 46.2705 28.4896 46.3785C28.4038 46.4327 28.3589 46.4677 28.3487 46.4758C28.3471 46.4771 28.3463 46.4778 28.3464 46.4777C28.3466 46.4775 28.3506 46.4742 28.3581 46.4674C28.3637 46.4624 28.3712 46.4556 28.3806 46.4468L28.3959 46.432L28.4046 46.4235L28.4092 46.419L28.4116 46.4166Z" fill="#006685"/>
</svg>
